<?xml version="1.0" encoding="utf-8"?>
<!-- Generator: Adobe Illustrator 22.1.0, SVG Export Plug-In . SVG Version: 6.00 Build 0)  -->
<svg version="1.1" id="Слой_1" xmlns="http://www.w3.org/2000/svg" xmlns:xlink="http://www.w3.org/1999/xlink" x="0px" y="0px"
	 viewBox="0 0 599.7 599.7" style="enable-background:new 0 0 599.7 599.7;" xml:space="preserve">
<style type="text/css">
	.st0{fill:#57236A;}
</style>
<path class="st0" d="M53.9,545.8h491.9V53.9H53.9V545.8z M498.2,498.2H101.5V101.5h396.7V498.2z"/>
<path class="st0" d="M141,188.5v47.3h99l-94.2,201.5h52.4l113.2-248.8H141z M431.2,283.4c14.4-11.5,23.6-27.1,23.6-51.9
	c0-39.1-29.5-68.9-74-68.9c-44.5,0-74,30.2-74,68.2c0,25.5,9.2,41.1,23.6,52.7c-16.7,12.1-27.5,28.6-27.5,56.5
	c0,39.3,31.1,70.6,78,70.6c46.9,0,78-30.9,78-71.3C458.7,311.9,447.9,295.5,431.2,283.4 M380.7,364.9c-19,0-30.1-13.6-30.1-29.8
	c0-17.6,11.7-30.9,30.1-30.9c18.4,0,30.1,12.9,30.1,31.2C410.8,350.9,399.7,364.9,380.7,364.9 M380.7,267.7
	c-18.4,0-30.1-13.2-30.1-30.6c0-16,11.1-29.5,30.1-29.5c19,0,30.1,13.9,30.1,29.1C410.8,254.9,399.1,267.7,380.7,267.7"/>
</svg>
