<?xml version="1.0" encoding="utf-8"?>
<!-- Generator: Adobe Illustrator 22.0.1, SVG Export Plug-In . SVG Version: 6.00 Build 0)  -->
<svg version="1.1" id="Layer_1" xmlns="http://www.w3.org/2000/svg" xmlns:xlink="http://www.w3.org/1999/xlink" x="0px" y="0px"
	 viewBox="0 0 216.4 215.7" style="enable-background:new 0 0 216.4 215.7;" xml:space="preserve">
<style type="text/css">
	.st0{fill-rule:evenodd;clip-rule:evenodd;}
	.st1{fill-rule:evenodd;clip-rule:evenodd;fill:#231F20;}
	.st2{fill-rule:evenodd;clip-rule:evenodd;fill:#EC1C24;}
	.st3{fill-rule:evenodd;clip-rule:evenodd;fill:#FFFFFF;}
</style>
<path class="st0" d="M117.3,180.4c0.9,0,2,0.4,2.9,1.2c0.6,0.3,1.2,0.9,2,1.6c0.1,0,0.1,0.1,0.2,0.2c0.1,0.1,0.1,0.1,0.2,0.2
	c0,0,0.1,0.1,0.1,0.1c0.1,0.3,0.1,0.9,0.2,1.3c0,0.1,0.1,0.3,0.1,0.4c0.3,0.9,0.4,1.8,0.2,2.6c-0.4,2.3-3.6,4.7-6.1,4.9
	c-2.5,0.3-6.1-1.3-6.8-3.5c-0.3-0.5-0.4-1.2-0.4-1.9l0,0c0,1.3-0.1-0.9-0.1-1.8c0.3-0.5,0.5-1.1,0.7-1.7c0.1-0.2,0.3-0.3,0.2-0.6
	c0.2-0.1,0.3-0.3,0.5-0.5l0,0l0.1-0.1c0,0,0,0,0,0l0,0c0.3-0.5,0.7-0.9,1.1-1.3C113.4,180.3,115.4,180.4,117.3,180.4L117.3,180.4z
	 M121.6,185.4c0.2,1-0.3,3.4-1,4c-0.1,0.1-0.2,0.1-0.3,0.2c-0.1,0.1-0.3,0.2-0.5,0.4c-0.1,0-0.1,0.1-0.2,0.2c-0.1,0.1-0.2,0-0.3,0.1
	c-0.1,0-0.1,0.1-0.2,0.2c-0.1,0-0.3,0.1-0.5,0.2c-0.1,0.1-0.5,0.2-0.7,0.2c-0.2,0.1-0.4,0.1-0.6,0.2c-0.3,0.1-0.6,0.2-1.1,0.2
	c-0.3,0-1.9-0.2-2-0.4c-0.2-0.2-0.9-0.2-1-0.5c-0.5-0.1-0.7-0.5-1.1-0.7c0-0.2-0.1-0.2-0.1-0.3c-0.4-0.4-0.7-1-0.9-1.8
	c0-0.1,0-0.1-0.1-0.2c0-0.1,0.1-0.1,0.1-0.2c0-0.1-0.1-0.2-0.1-0.3c0-0.1,0-1.2,0.1-1.3c0.1-0.3,1-1.5,1.2-1.9
	c0.1-0.1,0.1-0.2,0.2-0.3c0.1-0.1,0.2-0.3,0.4-0.4c0.1-0.1,0.2-0.1,0.3-0.2c0.1-0.1,0.1-0.2,0.2-0.2c0.1,0,0.1,0,0.1-0.1
	c0.2-0.2,0.5-0.3,0.9-0.4c0,0,0,0.1,0.1,0.1c0,0,0.4-0.2,0.5-0.1c0,0.1,1.6-0.6,2.7,0c0.7,0.3,1,0.4,1.6,0.8c0,0,0.1,0,0.1,0
	c0.1,0.1,0,0.1,0.1,0.2c0.1,0.1,0.3,0.2,0.4,0.3c0.3,0.2,0.5,0.4,0.7,0.7C121.5,184.5,121.5,184.5,121.6,185.4L121.6,185.4z"/>
<path class="st1" d="M78.5,181.1c-0.1,0,0,0.1,0,0.2c0.1,0.3,0,1.6-0.3,1.6c-0.1,0-0.2,0-0.3,0c-0.3,0-0.9,0-1.2,0
	c-0.3,0-0.6,0-0.9,0c-0.1,0-0.2,0-0.2,0c-0.6,0-1.2-0.1-1.7,0c-0.1,0.1,0,0.2,0,0.3c0,0.1-0.1,0.1-0.1,0.2c0,0.1,0,0.2,0,0.3
	c0,0.1,0,0.2,0,0.3c0,0.2,0.1,0.4,0.1,0.5c0.2,0.1,0.6,0.1,0.9,0.2c0.1,0,0.1,0,0.2,0c0.2,0.1,0.7,0,1,0c0.5,0,1.2,0.2,1.7-0.1
	c0.2,0.1,0.5,0.2,0.6,0.4c0.1,0.1,0.1,1.2,0,1.2c0,0.1,0,0.2-0.1,0.3c-0.4,0.1-1.1,0.1-1.3-0.1c0,0-1.2,0.1-1.3,0.1
	c-0.4,0-0.8,0-1.3,0.1c-0.1,0,0,0.1,0,0.2c0,0.1-0.1,0.1-0.1,0.2c0,0.1,0,0.1,0,0.2c0,0.1-0.1,0.2-0.1,0.3c0,0.1,0,0.2,0,0.3
	c-0.1,0.4-0.2,0.9-0.1,1.4c0.2,0.2,0.5,0.1,0.9,0.1c0.2,0,0.4,0.1,0.7,0.1c0.3,0,0.6-0.1,0.9-0.1c0.4,0,0.8,0.1,1.2,0.1
	c0.4,0.1,0.9-0.1,1.1,0c0,0,0,0.1,0,0.1c0,0,0.1,0,0.2,0.1c0,0,0.1,0.2,0.1,0.3c0,0-0.1,1.6-0.1,1.6c-0.1,0-0.1,0.1-0.3,0.2
	c-0.1,0-0.3-0.1-0.5-0.1c-0.2,0-0.3-0.1-0.4-0.1c-0.2,0.1-0.4,0-0.7,0c-0.5,0-1.4,0.1-1.9,0.1c-0.2,0-0.3,0-0.5,0
	c-0.6,0-1.8,0-2.3-0.2c-0.1,0.1-0.3,0-0.5,0c0-0.1-0.2-0.1-0.3-0.2c0.1-0.3-0.1-1.5,0-1.9c0-0.1,0-0.2,0-0.3c0-0.4-0.1-0.7-0.1-1.1
	c0-0.4,0-0.7,0-1.2c0-0.1,0-0.2,0-0.3c0-0.2,0-0.5,0-0.8c0,0,0-0.1,0-0.1c0-0.1,0-0.1,0-0.1c0-0.1,0-0.2,0-0.2
	c0-0.1,0.1-0.1,0.1-0.2c0-0.1,0-0.2,0-0.3c0-0.1,0.1-0.3,0.1-0.4c0-0.2,0-0.3,0-0.5c0-0.5,0.1-1.1,0.1-1.7c0-0.2,0.2-0.2,0.3-0.3
	c-0.1-0.2-0.2-0.4-0.3-0.6c0-0.1,0.1-0.2,0.2-0.2c0-0.1,0.1-0.1,0.1-0.2c0.2,0,0.4,0,0.7,0c1,0,2.1,0.1,3.1,0.1
	c0.3,0,0.5,0.1,0.8,0.1c0.2,0,0.5,0,0.8-0.1c0.2,0,0.3-0.1,0.5-0.2c0.1,0,0.1,0,0.2,0c0.1,0,0.1-0.1,0.2-0.1
	C78.3,180.9,78.4,181,78.5,181.1L78.5,181.1z"/>
<path class="st1" d="M152.1,180.6c0.2,0.2,0.1,1.5,0.1,1.9c0,0.1,0,0.2,0,0.3c0,0.3,0.1,0.6,0,0.9c0,0.4-0.1,1.2,0.2,1.4
	c0.4,0.1,1.2,0,1.6,0c0.1,0,0.2,0,0.3,0c0.5,0,0.4-0.1,1,0c0.7,0,1.4,0,2.1-0.2c0.2,0,0.1,0.1,0.3,0.1c0.2-0.1,0.7,0,0.8-0.2
	c0-0.4,0-0.6,0-1.1c0-0.4,0-0.2,0.1-0.5c0-0.1,0-0.1,0-0.2c0.2-0.7,0.1-1.3,0.1-2c0.1,0,0.1-0.1,0.2-0.1c0,0,0.1-0.1,0.1-0.1
	c0.3-0.1,0.7,0.1,1.1,0c0.2,0,0.3-0.1,0.5-0.1c0.1,0.1,0.2,0.4,0.2,0.6c0,0.1-0.1,0.2-0.1,0.3c-0.1,0.4,0,0.9,0.1,1.2
	c0.1,1.2-0.1,2.4,0,2.9c0,0.1,0,0.3,0,0.4c0,0.2,0.1,0.3,0.1,0.5c0,0.1,0,0.3,0,0.4c0,0,0.1,0,0,0c0,0,0,1.9,0,2.1
	c-0.1,0.7,0,0.6-0.3,1.3c0,0.1-0.1,0.2-0.3,0.3c0,0-0.1,0-0.2,0c0,0,0,0.1-0.1,0.1c-0.3,0-0.6,0-0.9,0c-0.1,0-0.2,0-0.3,0
	c0,0-0.1,0-0.1,0c-0.2-0.2-0.1-0.5-0.3-0.7c0.1-0.9,0.2-2,0.1-2.9c-0.1-0.1-0.3,0-0.4,0c-0.1,0-0.2-0.1-0.3,0c-0.1,0-0.2,0-0.4,0
	c-0.1,0-0.2,0.1-0.3,0.1c-0.1,0-0.2,0-0.3,0c-0.1,0-0.1,0.1-0.2,0.1c-1.1,0.2-2.6,0.2-3.5,0.3c-0.1,0-0.1,0.1-0.2,0.1
	c-0.1,0.4-0.2,0.6-0.3,1c0,0-0.1,0.1-0.1,0.2c0,0.1,0,0.2,0,0.3c0,0.3-0.1,1.2-0.3,1.5c0,0.4-0.2,0.7-0.2,1.1
	c-0.1,0.1-0.1,0.2-0.2,0.2c0,0.2-0.1,0.2-0.1,0.3c-0.6-0.1-1.1,0.1-1.6-0.1c0-0.1-0.1-0.2-0.1-0.3c0-0.1,0-0.1,0-0.1
	c0,0,0-0.1,0-0.1c0-0.2,0.1-0.4,0.1-0.6c0-0.2-0.1-0.4,0-0.5c0-0.1,0-0.2-0.1-0.3c0.1-0.2,0.1-0.4,0-0.7c0-0.1,0-0.2,0-0.3
	c0-0.2,0.1-0.5,0.1-0.8c0-0.3-0.1-0.6-0.1-0.9c0-0.3,0-0.6,0-0.9c0-0.2-0.1-0.3-0.1-0.5c0-0.4,0-0.8,0-1.3c0-0.1,0-0.2,0-0.3
	c0-0.7,0-3,0.1-3.3c0.2-0.3,0.3-0.5,0.7-0.6C151.1,180.7,151.7,180.5,152.1,180.6L152.1,180.6z"/>
<path class="st1" d="M129,187.4c-0.2,0.7-0.1,1.5-0.2,2.2c0,0.7-0.1,1.4-0.5,1.9c-0.7,0-1.1,0.2-1.8,0.3c-0.2-0.4,0-0.8,0-1.2
	c0.1-1,0.1-2,0.1-3c0-0.4,0-0.9-0.1-1.3c0-0.4,0-0.8,0.1-1.2c0-0.5,0-1,0.1-1.4c0-0.1,0.1-0.2,0.1-0.2c0-0.1-0.1-0.1,0-0.2
	c0.1-0.8,0.1-1.8,0.2-2.8c0.3-0.2,0.7-0.1,1.2-0.2c0.1,0,0.3-0.1,0.3-0.1c0.2,0,0.5,0.1,0.8,0.1c0.3,0,0.6,0,0.8,0.1
	c0.2,0,0.4,0.2,0.7,0.3c0.4,0.1,0.7,0.2,1,0.4c0.1,0,0.2,0.1,0.3,0.2c0.2,0.1,0.2,0.2,0.4,0.3c0.1,0,0.1,0.1,0.1,0.1
	c0.4,0.3,0.8,0.6,1,0.9c0.1,0.1,0.1,0.2,0.1,0.3c0.1,0.1,0.1,0.2,0.2,0.3c0.2,0.5,0.4,1,0.2,1.7c0,0.1-0.1,0.3-0.2,0.4
	c-0.2,0.4-0.2,0.4-0.5,0.8c-0.3,0.3-0.6,0.8-0.9,1c-0.2,0.1-0.5,0.2-0.7,0.2c-0.2,0-0.5,0.1-0.7,0c-0.2,0-0.3,0.2-0.5,0.2
	C130.2,187.5,129.6,187.3,129,187.4L129,187.4z M129.6,182.2L129.6,182.2c-0.1,0-0.1,0.1-0.1,0.2c-0.2,1-0.2,2.1-0.1,3.1
	c0.3,0.1,0.7,0.2,1,0.2c0.1,0,0.6,0.1,0.7,0c0.1,0,0.1,0,0.2,0c0.3-0.1,0.6-0.3,0.8-0.4c0.2-0.4,0.5-0.8,0.5-1.6
	C132,182.8,130.8,182.3,129.6,182.2L129.6,182.2z"/>
<path class="st1" d="M143,180.1c0.1,0.1,0.1,0.3,0.2,0.4c0,0.1,0.1,0.1,0.1,0.2c0,0.1-0.1,0.1,0,0.2c0.1,0.2,0.2,0.5,0.3,0.8
	c0.1,0.2,0.7,1.7,0.7,1.8c0.2,0.2,0.2,0.5,0.3,0.7c0,0.1,0.1,0.1,0.1,0.2c0,0.1,0,0.1,0.1,0.2c0.2,0.3,0.2,0.4,0.3,0.7
	c0.5,0.9,0.8,2.1,1.1,2.8c0.1,0.1,0.2,0.3,0.3,0.4c0.1,0.2,0.3,1.6,0.3,1.9c0,0.2-0.1,0.4-0.1,0.6c-0.1,0.1-0.3,0.2-0.4,0.4
	c-0.4,0.1-1.4,0.1-1.6-0.1c-0.1-0.3-0.1-0.7-0.2-1c0-0.2-0.2-0.5-0.1-0.7c-0.2-0.3-0.5-2-0.6-2.2c-0.2-0.5-0.1-0.5-0.3-0.8
	c-1.1,0.2-2.6,0.1-3.7,0.2c-0.3,0.1-0.5,0.5-0.8,0.6c-0.1,0.1-0.1,0.3-0.2,0.4c0,0.7-0.5,1-0.8,1.6c0,0.1-0.6,1.3-0.6,1.3
	c0,0.1-0.1,0.1-0.1,0.2c0,0-0.1,0.1-0.1,0.2c0,0,0,0.1,0,0.2c-0.1,0.2-0.2,0.4-0.2,0.6c-0.2,0.2-0.4,0.4-0.6,0.4
	c0,0-1.5-0.4-1.8-0.6c0-0.3,0.1-0.4,0.1-0.6c0.2-0.1,0.4-1.1,0.9-1.5c0.1-0.1,0.2-0.3,0.2-0.5c0.1-0.1,0.1-0.2,0.2-0.3
	c0-0.5,0.6-1.7,0.9-2c0-0.3,0.1-0.5,0.2-0.7c0-0.3,0.2-0.5,0.3-0.7c0-0.1,0-0.1,0-0.2c0,0,0.1-0.1,0.1-0.1c0.1-0.2,0.1-0.3,0.1-0.5
	c0,0,0.1-0.1,0.1-0.1c0-0.1,0-0.1,0-0.2c0-0.1,0.1-0.2,0.2-0.3c0.1-0.2,0.3-0.5,0.3-0.8c0.2-0.1,0.2-0.3,0.3-0.4
	c0.1-0.2,0.2-0.4,0.3-0.6c0.2-0.5,1.2-2.1,1.3-2.2c0.1-0.1,0.2-0.1,0.4-0.2c0.2,0,0.4,0.1,0.5,0.1
	C141.6,180.2,142.3,180.1,143,180.1L143,180.1z M141.7,182.1L141.7,182.1c-0.1,0.2-0.3,0.4-0.5,0.5c0,0.3-0.2,0.4-0.2,0.7
	c-0.1,0.1-0.2,0.2-0.2,0.3c0,0.3-0.2,0.4-0.2,0.7c-0.1,0-0.2,0.1-0.2,0.3c0.2,0.2,0.5,0.1,0.8,0.2c0.1,0,0.1,0.1,0.2,0.1
	c0.4,0.1,0.7,0,1-0.2c0-0.3-0.2-0.6-0.2-0.9c0-0.1,0-0.2,0-0.4c0-0.3-0.1-0.4-0.2-0.6c0-0.1,0-0.2,0-0.3c0-0.1,0.1-0.2,0.1-0.3
	C142,182.1,141.9,182.1,141.7,182.1L141.7,182.1z"/>
<path class="st1" d="M63.9,186.3c-0.2,0.2-0.1,0.6-0.2,1c0,0.4-0.1,0.1,0,0.5c0,0.1,0,0.2,0,0.2c0,0.1,0.1,0.2,0.1,0.3
	c0,0.1,0,0.2,0,0.4c0,0.6,0.1,1.1,0.1,1.6c0,0.2,0.1,0.4,0.1,0.6c0,0.2-0.1,0.4-0.1,0.6c-0.1,0.2-0.5,0.6-0.8,0.7
	c-0.6,0.1-1.3,0-1.5-0.3c-0.1-0.1-0.1-0.3-0.1-0.4c0.1-0.2,0-0.4,0-0.7c0-0.1,0.1-0.1,0.1-0.2c0-0.4-0.1-0.8-0.1-1.2
	c0-0.1,0-0.2,0-0.3c0-0.4-0.1-0.3,0-0.8c0-0.2,0-0.4,0-0.7c0-0.2,0-0.4,0-0.7c0-0.1,0-0.2,0-0.3c0-0.3,0-0.3,0-0.6
	c0-0.2,0-0.4,0-0.5c0-0.1,0-0.1,0-0.1c0-0.2,0-0.4,0-0.6c0-0.2-0.1-0.4-0.1-0.5c0-0.1,0.1-0.3,0.1-0.4c0-0.1,0-0.3,0-0.5
	c0-0.2,0-0.5,0-0.7c0-0.1-0.1-0.1-0.1-0.2c0-0.2,0-0.3,0-0.5c0-0.1-0.1-0.2-0.1-0.3c0.1-0.2,0.2-0.3,0.5-0.4
	c0.7-0.2,0.3-0.2,1.2-0.3c0.6-0.1,1.8-0.1,2.1-0.1c0.6-0.1,1,0,1.5,0.1c0.4,0.2,0.7,0.2,0.9,0.4c0.5,0.2,1.4,1,1.3,1.5
	c0,0.1,0,0.4,0,0.6c0,0.4,0,0.6-0.1,1c0,0.1-0.1,0.2-0.1,0.2c-0.1,0.3-0.5,0.7-0.7,0.9c-0.1,0.1-0.1,0.1-0.2,0.2
	c-0.2,0.3-1.1,0.8-1.5,0.8c-0.3,0-0.1,0-0.4,0c-0.1,0-0.2,0-0.2,0C64.9,186.4,64.4,186.2,63.9,186.3L63.9,186.3z M64.2,182.1
	c0.2,0,0.4-0.1,0.6-0.1c0,0,0.3,0,0.3,0c0.1,0,0.2,0.1,0.3,0.1c0.1,0,0.1,0,0.2,0c0.1,0,0.3,0.1,0.5,0.1c0.2,0.1,0.8,0.4,0.9,0.6
	c0,0.1,0,0.3,0,0.4c0.1,0.5-0.3,0.7-0.4,0.9c-0.2,0.1-0.3,0.2-0.5,0.3c-0.1,0-0.2,0-0.3,0c-0.3,0-0.7,0.2-0.9,0.1c0,0,0,0-0.1,0
	c-0.2-0.1-0.6-0.2-0.8-0.2c0-0.1-0.2-0.2-0.3-0.3c0,0,0.1-0.6,0.1-0.8c0-0.1,0-0.3,0-0.4c0-0.2-0.1-0.3,0-0.5c0,0,0,0,0.1-0.1
	C64,182.3,64.1,182.2,64.2,182.1L64.2,182.1z"/>
<path class="st2" d="M136.7,167.7l0.6-0.3c3.8-3.2,8.1-6.1,11.3-9.4c1.3-1.3,1.3-2.5,3-3.4c3-1.5,6.9-0.7,10.5-1.5
	c8.5-2,14.9-7.6,20.7-13.9c3.3-3.6,7.1-7.5,9-10.5c4.3-6.8,4.3-10.7,6.4-18.8c2-7.9,5-18.1,1.1-25.5c-0.7-0.6-1.6-1.2-1.9-2.3
	c-0.3-0.8-0.8-1.5-0.8-2.6c-5.7-5.6-6.3-14.3-10.5-20.7c-4.4-6.6-10.4-10.5-15.4-16.1c-7.6-3.7-12.1-8.7-18.1-12.4
	c-4.7-2.8-10.5-4.8-15.3-7.1c-6.5-3.1-9-3.1-17.3-3.4c-2.9-0.1-5.9-1.1-8.6-1.1c-8.6-0.2-12.9,3.3-20.3,3.8c-2.4,0.2-4.6-0.5-6.8,0
	c-3.2,0.7-6.3,2.6-9.4,3.4c-3.5,0.9-7,0.7-10.1,1.5c-5.2,1.3-8.8,5.5-12,7.9c-0.5-1.2,1.2-0.3,0.8-1.5c-6.3,1.7-10.9,6.6-14.6,11.3
	c-3.9,4.8-8.4,9.6-11.6,14.6c-4,6.1-5.5,13.3-7.5,21.4c-1.3,5.1-3.2,10.2-3,15c0.4,11.9,8.4,21.8,15.4,28.5c1.3,1.3,2.4,3,3.8,4.1
	c5.3,4.6,9.9,8,15.4,12c2.5,1.9,5.4,5.1,7.5,6c5.3,2.3,12.5,5.1,16.9,6.4c5.6,1.7,11.3,0.7,18,1.5c5.2,0.6,9.9,2.8,14.3,2.6
	c7-0.2,15.2-2.3,22.5-1.9c0.2,8.1-3.3,11.6-3.4,19C131.2,172.4,132.7,171,136.7,167.7L136.7,167.7z"/>
<path class="st3" d="M131.3,99.9c1.2,3.7-8.3,9.7-4,14.4c1.4,1.5,4.5,1.6,7,1.8c2.5-5.9,0.6-9.7,4-14.2c1.6-0.8,3.3-0.1,3.8,1.3
	c-0.1,1.4-0.3,2.3-0.6,3.1c-0.8,2.5-0.6,2.7-1,5.2c-0.8,5.6-3.2,8.4-2.5,14.2c0.2,1.8-1.4,3.3-4.4,2.6c-2.2-1.2-0.2-4.8,0-7.1
	c-3-1-6.9-1-9.1-2.6c-5.1-4.7,0-13.6,4.3-18.8C129.7,99.6,130.5,99.4,131.3,99.9L131.3,99.9z"/>
<path class="st3" d="M80.5,91.4c-3.7,6.2-9.9,9.4-13.7,15.4c1.5,5.6,3.8,10.6,5.9,15.6c-0.3,1.4-1.2,2.1-2.4,2.3
	c-1.2,0.2-1.4-0.4-2.1-1.9c-0.8-4.9-3.5-8.2-5.7-12c-4.9,2.7-6.8,8.9-11.9,11.4c-0.9,0.1-1-0.5-1.4-0.8c-1.5,0-1.9,1.2-3.5,1
	c-0.1-4.1,3.9-6.3,6.1-8.9c2.4-2.7,5.1-5.2,7.9-7.2c-0.9-2.5-0.4-4.5-0.9-6.9c-0.7-3.1-2.9-4.6-2.5-8.5c2.8-1.7,3.2,0.5,4.2,3
	c0.5,1.2,3.3,7.3,4.1,7.7c2.5-1.6,4.7-3.7,6.8-5.8c1.8-1.9,1.8-2.1,4-3.3C77,91.4,78.7,89.6,80.5,91.4L80.5,91.4z"/>
<path class="st3" d="M152.1,103.2c3-2.9,5.8-4.6,11.7-3.2c3.5,0.7,8.7,4.2,9.3,6.6c2.1,8.7-3,18-11,19c-4.5,0.6-9.7-2.9-11.8-5.8
	c-3.6-4.7-3.4-8.1-1.1-12.7C150.5,104.5,150.4,104.9,152.1,103.2L152.1,103.2z M155.7,104.7l-1.2,0.9c-2.1,1.3-3.3,5.7-2.2,10.1
	c0.5,2.9,7.1,5.2,10.4,4.3c2.7-0.1,7.2-5.1,7.3-7.6c0.7-4.7-6.5-9.3-10.7-8.6C158,104.1,156.3,104.1,155.7,104.7L155.7,104.7z"/>
<path class="st3" d="M83.6,101.8c3.1-1.6,4.6,2.2,2.1,3.7c-1.4,0.8-3.6,1.2-5.2,0c-1.2-0.9-1.7-2.2-1.4-4c0.2-3.6,6.9-6.6,10-6.3
	c3.9,0.3,10,6.5,10.5,10.6c0.5,4.3-1.6,10.9-1.4,15.3c0.1,2.2,2.8,4.8,0.3,6.4c-1.9-0.1-2.8-1-3-2.7c-4.7,3.2-13.4,1.3-15.4-3.4
	c-1.8-7.9,8.2-7.9,14.1-8c0.9-0.1,0.5,0.9,1.4,0.8C99.8,105.7,90.2,94.1,83.6,101.8L83.6,101.8z M94.1,120.7L94.1,120.7
	c1.1-4-9-4.4-10-0.7C84.7,122.8,93.4,123.4,94.1,120.7L94.1,120.7z"/>
<path class="st3" d="M113.6,44.1c0.3,0.6,0,1.1-0.3,1.7c-1,1.9,0.1,1.4-1.6,4.2c-1.7,2.8-2.9,7.9,0.4,8.6c6.7,1.5,5.9-14.3,12-12.8
	c-1.4,9.6-5.3,15.2-7.4,26c-0.6,2.9-0.5,5.6-2.4,7.9c-1.4,0.1-2.4-0.2-3.1-0.8c-0.5-0.5-1.1-2.1-0.3-4.4c-0.2-5.5,2.2-6.1,2.7-11.6
	c-3.3-1.7-7.9-1.7-8.9-5.2c-0.8-2.6,1-4.7,2-7.4c0.8-2.2,0.9-1.7,2.2-3.5C110,45,111.2,43.4,113.6,44.1L113.6,44.1z"/>
<path class="st3" d="M74.5,56.1c3.2-2,4.5-5.8,8.6-6.8c2.1,0.3,2.1,0.9,1.8,1.6c-1.4,4.6-6.2,5.9-8.4,9.7c0.8,2.1,4.5,10.4,5.8,12.3
	c2.4,3.6,7.1,7,3.4,11.8c-2.5,0.8-3.5-0.8-4.2-2.4c-1-2.3-1-1.1-2.1-3.6c-2.7-4.1-4.6-9-6.8-13.6c-3.4,1.1-7,11.8-10.5,5.5
	c1.4-4.7,6-6.2,7.9-10.5c-0.9-3.8-7.1-8.6-3.4-12.1C71.9,48.1,72.3,53.1,74.5,56.1L74.5,56.1z"/>
<path class="st3" d="M140.6,82.6c0.4-0.1,0.5,0.2,0.5,0.5c-2.6,3.1-3.4,8-7.6,9.4C133.6,88,137.7,85.3,140.6,82.6L140.6,82.6z"/>
<path class="st3" d="M110.1,96.1c10.7-1.8,10,14,0.9,13.6c-0.1,4.8-0.4,9.9-1.1,14.9c-0.9,0.6-2,0.3-2.9-0.2
	c-2.4,0.2-2.5-1.8-2.1-4.3c-0.8-7.8,1.4-14,1.1-20.5c-0.1-1.6-0.7-3.7,0.9-5.3C108.7,93.5,109.7,94.7,110.1,96.1L110.1,96.1z
	 M115,102.6L115,102.6c-0.1-1.4-1.7-1.7-2.2-2.9c-4-1.3-2.2,4.4-1.7,5.8C113.1,106.1,115.1,104.4,115,102.6L115,102.6z"/>
<path class="st2" d="M90.1,157.5L90.1,157.5c-13.4-1.3,14.4,9,15.9,3.7C103,160.4,91.2,157.6,90.1,157.5L90.1,157.5z"/>
<path class="st2" d="M19.1,67.3L19.1,67.3c4.6-14.4,16.1-23.5,23.3-35.9C31.3,39,18,50.4,19.1,67.3L19.1,67.3z"/>
<path class="st3" d="M135.5,44.5c0.7,0.3,1.4,0.6,1.6,1.6c0.1,4.2-0.2,5.7-1,9.7c-1.3,5.7-4.5,12.2,1.6,13.4
	c7.4,1.4,10.9-7.5,14.7-10.7c1.1-3.3,2.3-6.4,6-7.1c0.4,1.1,0.1,2.1,0,3.1c-0.4,2.5-0.1,2.6-1.3,5.3c-2.1,4.7-3.1,9.9-5.5,15.2
	c0.4,0,18.5-7.1,16,1.3c-1.1,0.6-2.2,1.9-3.5,1.2c-4-0.6-7,0.9-10.1,1.2c-1.5,0.5-2.9,1.1-4.5,1.6c-1.6,2.2-2.7,5.8-4.7,8.9
	c-2.8,4.4-4.2,9.8-11.3,9.2c-2.1-0.2-2.2-1.5-1.8-2.9c1.7-6.7,4.9-10.6,9.7-14.4c1.8-1.4,4.3-2,5.5-3.4c0.4-0.5,4.2-11.1,4.1-11.7
	c-3.9,2.2-7.3,7.4-12.8,7.6c-3.5,0.1-6.8-1.3-8.7-3.4c-1.4-1.5-1.3-3.1-1.3-5c0.1-7,1.2-17.5,5.5-20.4
	C133.8,44.4,135.1,44.5,135.5,44.5L135.5,44.5z M135.9,94.8c3.2,1,5.1-6.9,7.6-10c0-0.3,0-0.8-0.4-0.7
	C142.4,84.8,132,93.8,135.9,94.8L135.9,94.8z"/>
<path class="st3" d="M86.1,58.5c2.9-6,15.5-8.6,15.7,0.8c0.1,3.9-1.2,7-3.8,9.5c-2.9,2.8-10.6,1.1-11.7-2.1
	c-0.6-1.8-0.7-5.3,0.5-6.5C86.8,59.3,85.9,59.5,86.1,58.5L86.1,58.5z M90,62.4L90,62.4c0.3,2,2.6,3.8,5,2.9c2.5-0.9,3.3-2.7,2.9-5.5
	C95.9,55.7,89.4,58.5,90,62.4L90,62.4z"/>
<path class="st0" d="M115.4,182.6c0.5,0.9-1,1.3-0.7,0.1C114.8,182.5,115.2,182.4,115.4,182.6L115.4,182.6z M113.7,183.3
	c0.3,0,0.3,0.5,0.1,0.8c-0.1,0.2-0.5,0.2-0.7,0.1C112.8,183.7,113.2,183.1,113.7,183.3L113.7,183.3z M119.4,184.8
	C119.4,184.8,119.4,184.9,119.4,184.8c0.1,0.2,0.2,0.4,0.4,0.5c0,0.5,0.2,1,0.2,1.5c0,0.2,0,0.5,0,0.7c0,0.2-0.1,0.4-0.1,0.6
	c-0.1,0.2-0.3,0.4-0.3,0.6c-0.3,0.2-0.4,0.5-0.6,0.7c-0.1,0.1-0.2,0.2-0.3,0.3c-0.1,0.1-0.1,0.2-0.2,0.2c0,0,0,0.1,0,0.1
	c-0.1,0-0.3,0.1-0.4,0.1c-0.1,0-0.3,0.1-0.4,0.1c-0.1,0-0.3,0-0.4,0c-0.1,0-0.2,0.1-0.3,0.1c-0.2,0-0.4-0.1-0.7-0.1
	c-0.2,0-0.5,0-0.6-0.1c0,0-0.1-0.1-0.1-0.1c-0.2-0.1-0.4-0.2-0.6-0.3c-0.5-0.3-0.8-0.6-1.1-1c-0.1,0,0-0.1-0.1-0.2
	c-0.1-0.1-0.5-0.9-0.5-1c0-2.6,0.9-2.5,1.2-3c0.3-0.1,0.7-0.2,0.9-0.5c0.3,0,0.5-0.2,0.7-0.2c0,0,1,0,1.1-0.1c0,0,0.9,0,0.9,0.1
	c0.1,0,0.1,0.1,0.2,0.1C118.4,184.2,119.1,184.6,119.4,184.8L119.4,184.8z"/>
<path class="st1" d="M106.8,180.1L106.8,180.1c-0.1,0-0.1,0.1-0.2,0.1c-0.1,0-0.1,0-0.2,0c-0.7,0.1-1.1-0.1-1.6-0.2
	c-0.3,0-0.6,0-0.8-0.1c-0.2,0.1-0.5,0-0.7,0c-0.3,0-0.6,0-0.9,0c-0.3,0-0.7-0.1-1-0.1c-0.2,0-0.4,0.2-0.6,0.2
	c-0.1,0-0.3-0.1-0.4-0.1c-0.1,0-0.2,0-0.2,0c-0.1,0-0.2-0.1-0.3,0c-0.2,0-0.3,0.1-0.4,0.1c-0.2,0-0.3-0.1-0.4,0
	c-0.1,0.2-0.1,0.6,0.1,0.6c0.2,0.1,0.4-0.1,0.6-0.1c0.3-0.1,0.7,0,1.1,0c0.7,0,1.5-0.1,2.3-0.1c0.1,0,0.3,0,0.4,0c0.1,0,0.3,0,0.4,0
	c0.1,0,0.3,0,0.4,0c0.2,0,0.5-0.1,0.7,0c0.4,0,0.9,0.1,1.3,0.1c0.3,0,0.6-0.1,0.6-0.4C107.1,180.2,107,180.1,106.8,180.1
	L106.8,180.1z"/>
<path class="st1" d="M107.7,179.7c0,0.2-0.2,0.3-0.2,0.4c0,0.6-0.1,0.9-0.5,1.2c-0.1,0.1-0.4-0.1-0.5,0c-0.8-0.1-1.7,0-2.5-0.1
	c-0.2,0-0.3-0.1-0.5-0.1c-0.2,0-0.3,0-0.5,0c-0.2,0-0.4,0-0.6,0c-1,0-1.9,0-2.9,0.1c-0.2,0-0.4,0.1-0.6,0.1c-0.2,0.1-0.5,0-0.7-0.1
	c-0.3-0.4-0.2-0.9-0.6-1.4c-0.2-0.2-0.2-0.5,0.1-0.7c0.6,0.1,1.2,0.2,1.8,0.2c0.2,0,0.4-0.1,0.7,0c0.2,0,0.4,0.1,0.6,0.1
	c0.1,0,0.2-0.1,0.3-0.1c0.2,0,0.2,0,0.4,0c0.1,0,0.3-0.1,0.4-0.1c0,0,2.6,0.1,2.7,0.1c0.1,0,0.2,0.1,0.3,0.1c0.1,0,0.2-0.1,0.3,0
	c0.1,0,0.3,0.1,0.4,0.1c0.1,0,0.2,0,0.3,0c0.1,0,0.3,0.1,0.4,0.1c0.1,0,0.3-0.1,0.4-0.1C106.9,179.6,107.3,179.4,107.7,179.7
	L107.7,179.7z"/>
<path class="st1" d="M88,183.4c-0.1-0.1-0.2-0.2-0.3-0.3c-0.7-0.4-1.6-0.4-2.2,0.2c0,0-0.1,0.1-0.1,0.1c-0.1,0.1-0.4,0.3-0.5,0.4
	c0,0-0.1,0-0.1,0.1c0,0,0,0.1,0,0.1c-0.1,0.1-0.3,0.4-0.4,0.5c-0.1,0.1-0.1,0.3-0.1,0.4c0,0-0.1,0.1-0.1,0.2
	c-0.1,0.2-0.2,0.2-0.2,0.5c0,0.1,0,0.2-0.1,0.3c0,0-0.1,0.1-0.1,0.1c-0.1,0.3,0,0.6,0,0.8c0.1,0.5,0.9,1.8,1.2,2.1
	c0.1,0.1,0.2,0.2,0.3,0.3c0.1,0,0.2,0.1,0.3,0.2c0.5,0.3,1.9,0.6,2.2,0.2c0.1,0,0.2-0.1,0.3-0.1c0.1,0,0.2-0.1,0.3-0.1
	c0.2-0.1,0.2-0.3,0.3-0.5c0-0.2,0.2-0.3,0.1-0.5c0.2-0.1,0-0.4,0.2-0.5c0.5-0.1,1.6-0.1,2,0.1c0,0.4,0,0.8-0.1,1.2
	c-0.1,0.3-0.2,0.4-0.3,0.8c-0.3,0.2-0.2,0.3-0.4,0.5c-0.2,0.2-0.4,0.4-0.7,0.6c-0.6,0.4-0.9,0.4-1.4,0.6c-0.3,0.1-0.7,0.1-0.9,0.1
	c-0.1,0-0.3,0-0.4,0c-0.2,0-1.6-0.2-1.7-0.3c-0.1,0-0.3-0.2-0.4-0.2c-0.4-0.3-0.7-0.6-1.2-0.9c-0.1-0.2-0.4-0.4-0.6-0.6
	c-0.2-0.2-0.3-0.5-0.5-0.6c0,0,0-0.1-0.1-0.1c0,0-0.1-0.2-0.2-0.3c-0.1-0.2-0.2-0.4-0.3-0.6c-0.1-0.1-0.2-0.4-0.2-0.6
	c-0.1-0.3,0-0.5,0-0.8c0-0.3,0-0.5,0-0.8c0-0.1,0.1-0.1,0.1-0.2c0.1-0.5,0.2-0.9,0.5-1.3c0.2-0.3,0.3-0.7,0.5-1.1c0,0,0.1,0,0.1,0
	c0,0,0-0.1,0-0.1c0.4-0.8,1.8-2,2.6-2.4c0.1,0,0.2,0,0.2-0.1c0.1,0,0.2-0.1,0.2-0.1c0.2-0.1,0.3-0.1,0.6-0.2c0.1,0,0.2,0,0.2,0
	c0.1,0,0.1-0.1,0.1-0.1c0.3,0,0.8-0.1,1.2,0c0.8,0.1,2.6,1.5,2.6,2.3c-0.1,0.1-0.5,0.2-0.5,0.3c-0.2,0-0.3,0.2-0.4,0.2
	c-0.2,0.1-0.4,0.2-0.6,0.3C88.3,184.1,88.5,184,88,183.4L88,183.4z"/>
<path class="st1" d="M106.2,182.5c0.1,0.2,0.1,0.5,0.1,0.8c0,0.4,0,0.8-0.1,1.1c0,0.2,0,0.3-0.1,0.6c0.2,0.6,0,0.6,0,1.1
	c0.1,0.2,0,0.5,0,0.7c0,0.1,0,0.3,0,0.4c0,0.8-0.1,1.4-0.1,2.3c0,0.1-0.1,0.2-0.1,0.3c0,0.4,0.2,2-0.3,1.9c-0.5,0-0.9,0-1.3-0.1
	c-0.2,0-0.2,0.1-0.4,0.1c-0.2,0-0.2-0.2-0.3-0.3c-0.1-0.1-0.2-0.3-0.2-0.4c0-0.2,0.1-0.4,0.1-0.6c0-0.1,0-0.2,0-0.3
	c0.1-0.5,0.4-2.9,0.4-2.9c-0.1-0.2,0-0.6,0.1-0.9c0.1-0.4,0.2-1.3-0.1-1.5c-0.1-0.1-0.2,0-0.3,0c-0.1,0-0.2,0-0.3,0
	c-1,0.1-0.6,0-1.5,0c-0.2,0-0.5,0.1-0.8,0c-0.2,0.5,0,1.4-0.1,2c-0.1,0.4-0.1,0.8-0.1,1.2c0,0.3,0,0.5-0.1,0.8
	c-0.1,0.5,0.1,0.8-0.1,1.3c-0.1,0.3,0,0.5-0.1,0.7c-0.1,0.3-0.1,0.5-0.1,0.8c-0.2,0-0.6,0.1-0.7,0.1c-0.2,0-1,0-1.1,0
	c-0.1-0.6,0.1-1.3,0.1-2.1c0-0.2,0.1-0.9,0.1-1.1c0-0.2,0-0.3,0-0.5c0-0.5,0-1,0.1-1.4c0-0.3,0.1-1.1,0.1-1.4c0-0.2-0.1-0.3,0-0.5
	c0-0.1,0.1-0.2,0.1-0.3c0-0.1,0-0.2,0-0.3c-0.4-0.3-0.8,0-1.3-0.1c-0.1,0-0.2-0.1-0.3-0.1c-0.1,0-0.3,0-0.4,0c-0.1,0-0.2,0-0.3,0
	c-0.1,0-0.2,0.1-0.4,0.1c-0.2,0-0.3,0-0.5,0c-0.2,0-0.3,0-0.5,0c-0.2,0.1-0.1,0.3-0.2,0.6c0,0.2-0.1,0.9-0.1,1.2c0,0,0,0.1,0,0.2
	c0,0.1-0.1,0.2-0.1,0.2c0,0.1,0.1,0.2,0.1,0.4c0.1,0.7,0.1,1.2,0.2,1.9c0.1,0.5,0,1.4,0,1.7c0.1,0.3,0.2,0.3,0.2,0.7
	c0.2,0.2-0.1,0.7-0.3,0.6c-0.3,0-0.6,0-0.9,0c-0.3,0-0.6,0.1-0.8,0c0,0-0.1-0.1-0.2-0.1c-0.1-0.1-0.1-0.1-0.2-0.2
	c0.1-0.4,0-0.8,0-1.2c0-0.2,0-0.8,0-1c0-0.2-0.1-0.4-0.1-0.6c0-0.1,0-0.2,0-0.3c0-0.2-0.1-0.3-0.2-0.5c-0.1-0.4,0.1-2.5,0.1-2.9
	c0-0.1,0-0.3,0-0.4c0-0.1,0.1-0.3,0.1-0.4c0-0.1-0.1-0.2,0-0.3c0-0.2,0.1-0.4,0.1-0.6c0-0.1,0-0.2,0-0.3c0-0.1,0.1-0.2,0.1-0.3
	c0.3-0.3,0.9-0.1,1.4-0.1c0.3,0,0.6-0.1,0.9,0c0.1,0,0.2,0,0.3,0.1c0.2,0,0.3,0.1,0.5,0.1c0.8,0.3,1.9,0,2.8,0.1
	c0.1,0,0.2,0.1,0.3,0.1c0.1,0,0.2,0,0.3,0c0.1,0,0.2,0.1,0.3,0.1c0.3,0,0.6-0.1,1-0.1c0.1,0,0.1,0,0.2,0c0.1,0,0.3-0.1,0.5,0
	c0.1,0,0.2,0,0.2,0c0.1,0,0.2-0.1,0.3-0.1c0.3,0,0.7,0,1,0c0.3,0,0.6-0.1,1-0.1C104.9,182.3,105.7,182.4,106.2,182.5L106.2,182.5z"
	/>
<path class="st2" d="M153.9,197c0.2,0.2,0.2,0.5,0,0.8c-0.1,0.4,0,1.1-0.2,1.4c0.1,0.4-0.1,0.7-0.1,1c0,0.2,0,0.5-0.1,0.8
	c0,0.1,0.1,0.2,0.1,0.3c0.1,0.2-0.1,0.1-0.1,0.3c0,0.1,0.1,0.2,0,0.4c-0.1,0.3-0.4,0.4-0.8,0.4c-0.1-0.3-0.1-0.6-0.1-1
	c0-0.3,0-0.6,0-0.9c0-0.3,0.2-0.4,0-0.6c-0.2,0-0.2,0-0.4,0c-0.6,0-1.4,0.1-2,0.2c-0.3,0.2-0.1,1.2-0.2,1.4c0,0,0.4,0.7,0,0.9
	c-0.1,0.1-0.7,0-0.6-0.1c-0.3-0.4,0.1-1.6-0.1-2.1c-0.3-0.1-0.6-0.1-0.7-0.3c0-0.3,0.2-0.4,0.2-0.6c0.1-0.1,0.5,0,0.7-0.1
	c0,0,0-0.7,0.1-0.8c0.1-0.5,0-1.1,0.3-1.3c0.5,0,0.6-0.1,0.7,0.5c0,0.2-0.2,0.3-0.2,0.5c0,0.1,0,0.2,0,0.3c0,0.2-0.2,0.7,0,0.8
	c0.2,0,1.1,0,1.6-0.1c0.1,0,0.8-0.1,0.9-0.1c-0.1-0.5,0.1-1.1,0.1-1.8C153.3,196.9,153.5,196.8,153.9,197L153.9,197z"/>
<path class="st2" d="M62.6,197c0.2,0.2,0.1,0.4,0.1,0.6c0,0.1,0.1,0.3,0.1,0.4c0,0.1,0.1,0.1,0.1,0.2c0,0.1,0,0.2,0,0.2
	c0.1,0.2,0.7,1,0.8,1c0.3,0,0.2-0.3,0.5-0.3c0.1-0.1,0.2-0.3,0.3-0.4c0.3-0.3,0.6-0.6,0.9-0.9c0-0.2,0.1-0.2,0.2-0.4
	c0.2-0.1,0.4-0.3,0.8-0.2c0.2,0,0.2,0.2,0.3,0.3c0,0.1-0.1,0.2-0.1,0.4c0,0.1,0,0.2,0,0.4c0,0.1-0.1,0.3-0.1,0.4
	c-0.1,0.4,0,0.8,0,1.2c0,0.2-0.1,0.2,0,0.4c0.1,0.8,0,0.6,0.2,1.5c0.1,0.2,0,0.6,0,0.8c0,0-0.8,0.4-1-0.1c0-0.1,0.1-0.2,0-0.3
	c0-0.8-0.1-1.1,0-2c0-0.2,0-0.4,0-0.6c0,0,0,0,0,0c0,0,0-0.1,0-0.2c0-0.3,0.1-0.5,0-0.7c-0.2,0-0.2,0.1-0.3,0.2
	c-0.1,0.1-0.2,0.1-0.3,0.2c-0.1,0.1-0.1,0.2-0.1,0.2c-0.1,0.1-0.3,0.4-0.4,0.5c-0.1,0.2-0.3,0.8-0.7,0.8c-0.1,0-0.2-0.1-0.3-0.2
	c-0.2-0.2-0.9-1.2-1.1-1.3c-0.2,0.2-0.1,0.5-0.1,0.8c0,0.2-0.2,0.6-0.2,1c0,0.1,0,1,0,1c-0.2,0.5-0.3,0.6-0.7,0.4
	c-0.3-0.3-0.1-0.6-0.1-1c0-0.2,0-0.4,0-0.6c0-0.2,0.1-0.3,0.1-0.5c0-0.3,0-0.6,0.1-0.9c0-0.2,0.1-0.4,0.2-0.6c0-0.1,0-0.3,0-0.5
	c0.1-0.6-0.1-0.7-0.1-0.9C61.6,196.9,62.3,196.5,62.6,197L62.6,197z"/>
<path class="st2" d="M147,197.2c0.1,0.2,0.2,0.3,0.2,0.5c-0.1,0.3-0.4,0.5-0.7,0.7c-0.2,0.2-0.6,0.5-0.6,0.6
	c-0.1,0.2-0.2,0.2-0.4,0.4c0,0.2,0.2,0.2,0.3,0.4c0.1,0.2,0.3,0.3,0.5,0.5c0.1,0.1,0.2,0.3,0.3,0.3c0,0,0.1,0,0.1,0
	c0.1,0,0.4,0.4,0.4,0.4c0,0,0.1,0,0.1,0c0,0,0,0.1,0.1,0.1c0.2,0.1,0.5,0.3,0.4,0.6c-0.1,0.3-0.3,0.4-0.5,0.5c-0.1,0-0.2,0-0.3,0
	c-0.4-0.2-0.3-0.4-0.7-0.6c-0.3-0.2-0.7-0.6-0.9-0.8c-0.2-0.2-0.3-0.4-0.5-0.5c-0.1,0-0.1,0.1-0.2,0.1c-0.1,0-0.2,0-0.2,0.1
	c-0.1,0.1-0.1,0.3-0.2,0.4c0,0.1-0.2,0.1-0.2,0.1c-0.1,0.1-0.1,0.1-0.1,0.2c-0.1,0-0.1,0.1-0.2,0.1c-0.3,0.2-0.1,0.1-0.3,0.4
	c-0.1,0.2-0.2,0.2-0.4,0.4c0,0,0,0.1,0,0.1c0,0-0.1,0-0.1,0c0,0-0.1,0.2-0.2,0.2c-0.3,0.1-0.5,0-0.6-0.3c0-0.2,0.1-0.3,0.3-0.4
	c0.1-0.1,0.2-0.2,0.3-0.3c0.2-0.2,0.4-0.5,0.6-0.7c0.2-0.3,0.7-0.6,0.8-0.8c0.1-0.1,0.1-0.2,0.1-0.3c0-0.2-1-1.1-1.2-1.3
	c-0.1-0.1-0.2-0.2-0.3-0.3c0,0,0-0.2,0-0.3c0-0.2,0.2-0.5,0.5-0.5c0.1,0,0.3,0.1,0.4,0.1c0.1,0.1,0.1,0.1,0.2,0.3
	c0.1,0.2,0.7,0.7,0.9,0.9c0.1,0.1,0.1,0.2,0.3,0.3c0.2,0,0.3-0.3,0.5-0.4c0.1-0.1,0.1-0.2,0.2-0.2c0.1-0.1,0.1-0.2,0.3-0.2
	c0.2-0.2,0.5-0.8,0.8-0.9C146.7,197.2,146.9,197.2,147,197.2L147,197.2z"/>
<path class="st2" d="M125.1,197.2c0.5,0.7-0.1,0.8-0.5,1.2c-0.3,0.3-0.7,0.6-1,0.9c0,0.2-0.5,0.6-0.6,0.8c-0.1,0-0.2,0.2-0.2,0.2
	c0,0.1-0.2,0.1-0.3,0.2c-0.1,0.1-0.1,0.3-0.2,0.4c0,0.1-0.2,0.1-0.2,0.1c-0.1,0.1-0.1,0.1-0.1,0.2c-0.1,0-0.1,0.1-0.2,0.1
	c-0.3,0.2-0.1,0.1-0.3,0.4c-0.1,0.2-0.2,0.2-0.4,0.4c0,0,0,0.1,0,0.1c0,0-0.1,0-0.1,0c0,0-0.1,0.2-0.2,0.2c-0.3,0.1-0.5,0-0.6-0.3
	c0.1-0.4,0.4-0.5,0.6-0.7c0.2-0.2,0.4-0.5,0.6-0.7c0.2-0.3,0.7-0.6,0.9-0.8c0.3-0.4,0.2-0.3,0.6-0.7c0,0,0.3-0.3,0.3-0.3l0,0
	c0.2-0.1,0.6-0.9,0.8-0.8c0.2-0.2,0.5-0.8,0.8-0.9C124.8,197.1,125,197.2,125.1,197.2L125.1,197.2z"/>
<path class="st2" d="M124.3,195.6c0.4,0.6-0.6,1.1-1,1.4c0,0,0,0.1,0,0.1c0,0-0.1,0-0.1,0c0,0-0.1,0.2-0.2,0.2
	c-0.3,0.1-0.5,0-0.6-0.3c0-0.2,0.5-0.7,0.6-0.7c0.2-0.2,0.5-0.8,0.8-0.9C123.9,195.4,124.2,195.6,124.3,195.6L124.3,195.6z"/>
<path class="st2" d="M141.2,198.5c-0.1,0.2-0.2,0.5-0.4,0.6c-0.3,0.4-0.5,0.5-0.7,1c-0.2,0.1-0.5,0.6-0.6,0.8
	c-0.2,0.3-0.4,0.5-0.6,0.8c-0.1,0.3-0.4,0.5-0.5,0.7c-0.1,0.2-0.2,0.2-0.3,0.2c-0.2,0-0.2-0.3-0.4-0.4c0-0.2,0.2-0.3,0.2-0.5
	c0-0.1,0-0.1,0-0.2c0.1-0.1,0.2-0.2,0.3-0.3c0.1-0.1,0.2-0.3,0.2-0.4c0.1-0.1,0.2-0.2,0.2-0.3c0,0,0.4-0.7,0.4-0.7
	c0,0-0.2,0-0.7-0.5c0,0-1.7-1.3-1.9-1.5c-0.1-0.3,0.1-0.5,0.2-0.7c0.4,0,0.5,0.3,0.7,0.4c0.3,0.1,0.4,0.4,0.9,0.8
	c0.1,0.2,1,1,1.2,1.1c0.2-0.1,0.8-0.8,0.9-1.1c0.1-0.3,0.5-0.5,0.7-0.7c0.1-0.1,0.1-0.3,0.2-0.4c0.2,0,0.4-0.2,0.5-0.1
	c0,0.1,0.1,0.1,0.1,0.2c0.1,0.4-0.3,0.7-0.5,0.9C141.3,198.4,141.3,198.5,141.2,198.5L141.2,198.5z"/>
<path class="st2" d="M111.6,197.2c0.2,0.1,0.7,0,0.8,0.2c0,0.1-0.1,0.2-0.1,0.4c0,0.1-0.1,0.1-0.1,0.2c0,0.1,0,0.1-0.1,0.2
	c-0.1,0.1-0.2,0.2-0.3,0.2c-0.2,0.2-1.1,0.7-1.1,0.7c0,0-0.6,0.4-0.7,0.4c-0.1,0.1-0.3,0.2-0.4,0.2c0,0.1,0.2,0.1,0.3,0.2
	c0.1,0,0.2,0.1,0.3,0.2c0.1,0.1,0.3,0,0.4,0.1c0.2,0.1,0.4,0.2,0.5,0.3c0.3,0.1,0.5,0.2,0.8,0.4c0.5,0.3,0.7,0.3,1.2,0.7
	c0.3,0.2,0.6,0.4,0.2,0.6c-0.2,0-0.1,0.2-0.3,0.2c-0.3-0.1-0.4-0.2-0.6-0.3c-0.3-0.3-1-0.6-1.5-0.9c-0.2-0.1-0.4-0.2-0.6-0.3
	c-0.1-0.1-0.4-0.1-0.6-0.2c-0.2-0.1-0.4-0.1-0.5-0.1c-0.5,0.1-0.2,0.9-0.1,1.4c-0.2,0.2-0.8,0.5-1,0.1c0.1-0.5,0-1.2,0.1-1.7
	c0-0.2-0.3-0.3-0.3-0.4c0-0.2,0.3-0.3,0.4-0.5c0-0.2,0-0.5,0.1-0.8c0-0.3,0.1-0.6,0-0.9c0.1-0.3,0.6-0.3,0.8,0
	c0,0.1-0.1,0.2-0.1,0.3c0,0.1,0.1,0.1,0.1,0.1c0,0.3-0.2,0.7,0,1c0.3,0,0.5-0.2,0.7-0.3c0.2-0.1,0.4-0.3,0.6-0.4
	c0.4-0.3,0.7-0.5,1-0.9C111.6,197.5,111.6,197.3,111.6,197.2L111.6,197.2z"/>
<path class="st2" d="M72.9,197.6c0,0.1-0.1,0.2,0,0.4c-0.2,0-0.2,0.3-0.6,0.2c-0.1,0-0.3-0.1-0.5-0.2c0,0-0.4,0.1-0.3,0
	c-0.5,0.1-1.2,0.1-1.7,0.2c-0.1,0.2,0,0.4,0,0.5c0,0.1-0.1,0.2-0.1,0.3c0,0.2,0,0.4,0,0.6c0.3,0.2,0.7,0.1,1.1,0c0.2,0,0.3,0,0.5,0
	c0.1,0,0.3-0.1,0.4-0.1c0.1,0,0.2,0,0.3,0c0.2,0,0.4-0.1,0.6,0c0.2,0.3,0,0.5-0.3,0.6c-0.5,0.1-2.2,0.1-2.5,0.1
	c-0.2,0.1-0.1,0.6-0.1,0.9c0.9,0.2,1.8-0.1,2.9,0c0.2,0,0.4,0,0.6,0.2c0,0.2-0.1,0.2-0.2,0.2c-0.1,0.1,0,0.2-0.1,0.3
	c-0.2,0.1-0.4-0.1-0.6-0.1c-0.2,0-0.4,0.1-0.6,0.1c-0.1,0-0.3,0-0.4,0c-0.3,0-0.7,0.1-1.1,0.1c-0.3,0-0.5,0-0.7,0
	c-0.2,0.1-0.3,0-0.5-0.1c0-0.1,0-1.6,0-1.7c0,0,0-0.1,0-0.1c-0.1-0.1-0.2,0-0.3-0.2c-0.1-0.4,0.3-0.3,0.5-0.4c0-0.2-0.1-0.2,0-0.3
	c0.1-0.2,0-0.5,0.1-0.7c-0.1-0.2,0-0.3,0-0.5c0-0.2-0.1-0.5-0.1-0.7c0.1,0,0.2-0.1,0.2-0.2c0.2,0,0.4,0.1,0.7,0.1c0.4,0,1,0,1.4-0.1
	c0.4,0,0.5-0.1,0.9,0C72.4,197.4,72.7,197.3,72.9,197.6L72.9,197.6z"/>
<path class="st2" d="M78.2,197.4c0.1,0.1,0.3,0.2,0.3,0.4c0,0.1-0.3,0.3-0.4,0.4c-0.2,0-0.6-0.2-0.8-0.2c-0.1,0-0.2,0-0.3,0
	c0,0-0.2,0.1-0.8,0.1c-0.1,0-0.3,0.1-0.4,0.1c-0.2,0-0.3,0-0.4,0.1c-0.1,0.2,0,0.3,0,0.5c0.1,0.7-0.1,2.4,0,3c0,0.2,0.1,0.2,0.1,0.4
	c0,0.1-0.7,0.3-0.8,0.2c-0.2-0.3-0.1-0.6-0.1-1c0-0.3-0.1-1.6,0-2c0-0.1,0.1-0.2,0.1-0.4c0-0.1,0-0.3,0-0.4c0-0.1,0.1-0.2,0-0.3
	c0-0.2-0.1-0.4-0.1-0.6c0-0.2,0.3-0.4,0.4-0.5c0.2,0,0.4,0.1,0.6,0.2c0.1,0,0.3,0,0.4,0C76.5,197.3,77.5,197.4,78.2,197.4
	L78.2,197.4z"/>
<path class="st2" d="M80.2,197.2c0.1,0.1,0.1,0.2,0.2,0.4c0.4,0,1-0.1,1.5,0c0,0,0.8,0.2,0.9,0.2c0.1,0.1,0.6,0.4,0.6,0.6
	c0,0.1,0,0.2,0,0.4c0,0.1-0.1,0.2-0.1,0.3c-0.4,0.5-1.5,0.9-1.8,0.8c-0.1,0-0.2,0.1-0.3,0.1c-0.3,0-0.5,0-0.7,0.1
	c-0.2,0.4,0.1,1.6,0,2c0,0.2-0.6,0.4-0.7,0.3c-0.2,0-0.1-0.1-0.2-0.2c-0.2-0.4,0.1-1.5,0-2c0-0.1-0.2,0-0.3,0
	c-0.2-0.2-0.4-0.2-0.4-0.5c0-0.3,0.3-0.2,0.7-0.3c0.1-0.1,0-0.2,0-0.4c0-0.1,0.1-0.2,0.1-0.4c0-0.1,0-0.2,0-0.3c0-0.1,0-0.3,0-0.4
	c0-0.1-0.1-0.2-0.1-0.4C79.5,197.3,79.8,197.2,80.2,197.2L80.2,197.2z M81.7,199.4L81.7,199.4c0.3-0.1,0.9-0.4,0.9-0.7
	c0-0.2-0.4-0.4-0.6-0.4c-0.5-0.1-1.2,0.1-1.6,0.2c-0.1,0.4-0.1,0.7,0,1.1C80.7,199.6,81.2,199.5,81.7,199.4L81.7,199.4z"/>
<path class="st2" d="M97.8,199.3c0.2,0.2,0.6,0.1,0.9,0.1c1,0.1,1.3,0.1,1.7,0.4c0.8,0.5,0.7,1-0.2,1.8c-0.1,0.1-0.2,0.1-0.3,0.1
	c-0.2,0.1-0.4,0.1-0.5,0.2c-0.1,0-0.2,0.1-0.4,0.1c-0.1,0-0.2,0.1-0.3,0.1c-0.1,0-0.3,0-0.5,0.1c-0.1,0-0.3,0-0.6,0
	c-0.1,0-0.2,0.1-0.3,0.1c-0.2,0-0.3-0.1-0.5-0.1c-0.1-0.1-0.2-0.2-0.2-0.3c0-0.3,0.3-0.4,0.4-0.5c0.1-0.5,0.1-0.8-0.1-1.2
	c-0.1-0.1-0.4-0.1-0.5-0.2c0-0.3,0.2-0.4,0.4-0.5c0-0.2,0-0.7,0-0.9c0-0.1-0.1-0.1-0.1-0.2c0-0.1,0.1-0.1,0-0.1
	c0-0.2-0.1-0.4-0.1-0.5c0.1-0.2,0.3-0.4,0.6-0.3c0.1,0,0.3,0.3,0.3,0.4C97.8,198.1,97.7,199,97.8,199.3L97.8,199.3z M99.8,200.3
	L99.8,200.3c0-0.1-1-0.3-1.2-0.2c-0.2,0-0.3,0.1-0.4,0c-0.2,0-0.3,0-0.4,0.1c0.1,0.4,0.1,0.9,0.2,1.3c0.3,0,0.5,0,0.7,0
	c0.1,0,0.2,0,0.3-0.1c0.1,0,0.2,0,0.3-0.1c0.3-0.1,0.8-0.3,0.9-0.6C100.3,200.5,100.1,200.3,99.8,200.3L99.8,200.3z"/>
<path class="st2" d="M105.8,198.2c-0.1,0.1-0.2,0.2-0.3,0.2c-0.1,0-0.2-0.1-0.3-0.2c-0.1-0.1-0.1-0.2-0.3-0.2
	c-0.6-0.1-1.3,0.8-1.6,1.2c-0.3,0.5-0.5,0.9-0.5,1.2c-0.1,0.5,0,1,0.4,1.1c0.9,0.2,0.7,0.2,1.7,0c0.4-0.1,0.5-0.2,0.8-0.3
	c0.2-0.1,0.3-0.2,0.4-0.4c0.1-0.1,0-0.2,0.1-0.2c0.2,0,0.4,0.1,0.5,0.2c0.2,0.2,0,0.6-0.2,0.7c-0.1,0.1-0.3,0.2-0.4,0.3
	c-0.1,0-0.3,0.2-0.4,0.2c-0.2,0.1-0.3,0.1-0.5,0.2c-0.2,0-0.5,0.2-0.7,0.2c-0.4,0.1-0.8,0-1.2,0c-0.5,0-0.9-0.4-1.3-0.8
	c0-0.2-0.2-0.4-0.2-0.6c0-0.3,0-0.5,0.1-0.7c0-0.1,0-0.1,0-0.2c0.1-0.4,0.3-0.7,0.5-1.1c0,0,0.3-0.4,0.3-0.4c0-0.1,0.2-0.1,0.3-0.2
	c0.1-0.1,0.1-0.2,0.2-0.3c0,0,0.3-0.2,0.3-0.2c0.1,0,0.2,0,0.3-0.1c0.2-0.1,0.5-0.2,0.8-0.2c0.4,0,0.5,0.2,0.8,0.1
	C105.9,197.6,106.4,198.1,105.8,198.2L105.8,198.2z"/>
<path class="st2" d="M89,197.5c0.3,0.5,0,0.6-0.2,0.9c-0.2,0-0.3-0.1-0.4-0.2c-0.1,0-0.5,0-0.7,0c-0.1,0-0.4-0.1-0.5,0.1
	c-0.2-0.1-0.3,0-0.5,0c-0.4,0-0.9,0.1-1.2,0.2c-0.2,0.2-0.1,0.6-0.3,0.8c0.2,0.2,0.5,0.1,0.8,0.1c0.3,0,0.5,0,0.8,0
	c0.4,0,0.9,0.1,1.3,0.1c0.4,0,0.8-0.1,1,0.3c0.1,0.1-0.3,0.7-0.4,0.6c-0.6,0.1-1.2-0.3-1.8-0.2c-0.1,0-0.2,0.1-0.3,0.1
	c-0.4,0-0.9,0-1.4,0c-0.3,0.2,0,1,0,1.4c0.3,0.2,0.7,0,1.1,0c0.1,0,0.2,0.1,0.3,0c0.4,0,2.1-0.3,2.3,0c0.2,0.6-0.1,0.5-0.4,0.7
	c-0.1-0.1-0.1,0-0.2,0c-0.1,0-0.5-0.1-0.7-0.1c-0.2,0-0.4,0.1-0.5,0.1c-0.1,0-0.2,0-0.3,0c-0.1,0-0.3,0-0.5,0c-0.2,0-0.3,0-0.5,0
	c-0.1,0-0.2,0.1-0.3,0.1c-0.1,0-0.3,0-0.5,0c-0.2,0-0.3,0.1-0.5,0.1c-0.2-0.1-0.2-0.3-0.3-0.5c0-0.2,0-0.4,0-0.6
	c0,0,0.1-0.1,0.1-0.1c0-0.2,0-0.6,0-0.9c0-0.1,0-0.2,0-0.3c0-0.1-0.1-0.3-0.1-0.4c0-0.2,0.1-0.4,0.2-0.6c-0.1-0.2,0-0.4,0-0.6
	c0-0.1-0.1-0.2,0-0.3c0-0.2,0.2-0.3,0.2-0.5C86.1,197.4,87.5,197.3,89,197.5L89,197.5z"/>
<path class="st2" d="M93.6,197.4c0.1,0.1,0.1,0.2,0.1,0.4c0,0.1,0.1,0.2,0.2,0.3c0,0.1,0,0.3,0.1,0.4c0,0.1,0.1,0.2,0.1,0.3
	c0,0.2,0,0.4,0.1,0.6c0,0.1,0.1,0.2,0.2,0.3c0,0.1,0.1,0.3,0.1,0.4c0.1,0.2,0.2,0.5,0.2,0.7c0.2,0.3,0.5,0.5,0.6,1
	c-0.1,0.4-0.4,0.5-0.8,0.4c-0.1-0.2-0.1-0.3-0.2-0.5c-0.1-0.1-0.1-0.3-0.2-0.5c-0.2-0.4-0.1-0.2-0.2-0.6c0-0.1-0.1-0.2-0.1-0.3
	c-0.1-0.6-0.3-1.3-0.7-1.7c-0.2,0-1.4,2-1.6,2.3c0,0.1,0,0.2-0.1,0.3c0,0.1-0.1,0.2-0.1,0.3c0,0.2-0.2,0.3-0.2,0.6
	c-0.1,0.2-0.8,0.4-0.9,0.3c-0.1-0.4,0.1-0.6,0.2-0.8c0.2-0.5,0.3-0.7,0.6-1.2c0.4-0.7,1-1.8,1.3-2.2c0,0,0.1,0,0.1,0
	c0-0.1,0.1-0.3,0.2-0.4c0.1-0.1,0.2-0.1,0.3-0.3C93.1,197.3,93.5,197.2,93.6,197.4L93.6,197.4z"/>
<path class="st2" d="M135.6,197.2c0.2,0.5-0.4,0.7-0.6,0.9c-0.2,0.2-0.4,0.3-0.7,0.5c0,0-0.1,0.1-0.1,0.1c0,0-0.1,0-0.2,0
	c-0.6,0.4-1.3,0.7-1.7,1.2c0.5,0.5,1.4,0.6,2.1,0.9c0.4,0.3,0.8,0.3,1.2,0.6c0.2,0.1,0.4,0.2,0.4,0.2c0,0,0.2,0.1,0.3,0.2
	c0.1,0.3,0,0.6-0.3,0.7c-0.6,0-1.6-1.1-3.4-1.5c-0.2-0.1-0.4-0.2-0.6-0.3c-0.1,0-0.2,0.1-0.2,0.1c-0.1,0.3-0.1,0.9,0,1.2
	c-0.1,0.2-0.2,0.5-0.7,0.4c-0.4-0.4,0-1-0.1-1.6c-0.2-0.2-0.5-0.2-0.6-0.5c0.1-0.4,0.4-0.5,0.7-0.6c0-0.7,0.1-1.5-0.1-2.1
	c0.2-0.2,0.4-0.5,0.8-0.3c0.2,0.6,0.1,1.4-0.1,1.9c0.2,0,0.3-0.2,0.5-0.3c0.3-0.2,0.6-0.4,0.9-0.5c0.1-0.1,0.3-0.2,0.4-0.2
	c0,0,0-0.1,0.1-0.1c0.5-0.3,0.9-0.7,1.4-1C135.3,197.1,135.4,197.2,135.6,197.2L135.6,197.2z"/>
<path class="st2" d="M116.6,197.2c2.4,0,3.5,4.4,0,4.8c-1,0.1-2.3-0.5-2.6-1.3c-0.4-0.8,0-2.4,0.8-3.1
	C115.1,197.2,115.9,197.2,116.6,197.2L116.6,197.2z M117.8,200.5c-0.3,0.6-1.9,1-2.2,0.6c0,0-0.7-0.4-0.7-0.4c0-0.1,0-0.1,0-0.1
	c-0.1-0.1-0.5-0.8-0.3-1c0-0.1,0-0.1-0.1-0.1c-0.1-0.7,1.2-1.4,1.2-1.4c0,0,0.2,0,0.2,0c0.1,0,0.3,0.1,0.3,0
	c0.7-0.1,1.1,0.2,1.6,0.7C118.3,199.1,118.1,199.9,117.8,200.5L117.8,200.5z"/>
<path class="st2" d="M120.9,200.3c-0.1,0.2,0,0.7,0,1.1c0,0.5,0.3,1.2-0.2,1c-0.2,0-0.3,0.1-0.4,0c-0.3-0.3-0.1-2.2-0.2-2.8l0,0
	c0,0,0-0.1,0-0.1l0,0c0,0,0-0.1,0-0.1l0,0c0-0.4,0.1-2,0.3-2.2h0.6c0.1,0.2,0.2,0.3,0.2,0.5c0,0.2-0.1,0.3-0.2,0.5
	c0,0.1,0,0.2,0,0.3c0,0.2-0.2,0.5-0.1,0.7c0,0.1,0,0.1,0,0.2c0,0,0,0.2,0,0.3C120.9,199.7,120.8,200.1,120.9,200.3L120.9,200.3
	L120.9,200.3z"/>
<path class="st2" d="M125.1,197.2c0.2,0.1,0.2,0.5,0.1,0.8c0,0.1-0.2,2-0.2,2.3c0,0.2,0,0.5-0.1,0.7c0,0.1,0.1,0.2,0.2,0.3
	c0.1,0.2-0.1,0.1-0.1,0.3c0.2,0.5-0.1,0.6-0.4,0.6c-0.3,0.1-0.3,0.2-0.4-0.2c0-0.2,0-0.4,0-0.6c0-0.3-0.1-0.6,0-0.9
	c0,0,0.1-0.7,0.1-0.7c0,0,0-0.1,0.1-0.2c0,0,0,0,0,0l0,0c0-0.1,0.1-0.3,0-0.4c-0.1-0.5,0.1-1.1,0-1.6
	C124.5,197.2,124.7,197.1,125.1,197.2L125.1,197.2z"/>
<path class="st2" d="M160.8,197.1c0.5,0.7-0.1,0.8-0.5,1.2c-0.3,0.3-0.7,0.6-1,0.9c0,0.2-0.5,0.6-0.6,0.8c-0.1,0-0.4,0.3-0.5,0.4
	c-0.1,0.1-0.1,0.3-0.2,0.4c0,0.1-0.2,0.1-0.2,0.1c-0.1,0.1-0.1,0.1-0.1,0.2c-0.1,0.1-0.1,0.1-0.2,0.1c-0.2,0.1-0.3,0.5-0.6,0.8
	c0,0,0,0-0.1,0.1c0,0-0.1,0.2-0.2,0.2c-0.3,0.1-0.5,0-0.6-0.3c0.1-0.4,0.4-0.5,0.6-0.7c0.2-0.2,0.4-0.5,0.6-0.7
	c0.2-0.3,0.7-0.6,0.8-0.8c0.3-0.3,0.2-0.3,0.6-0.7c0,0,0.3-0.3,0.3-0.3v0c0.2-0.1,0.6-0.8,0.8-0.8c0.2-0.2,0.5-0.8,0.8-0.9
	C160.6,197.1,160.7,197.1,160.8,197.1L160.8,197.1z"/>
<path class="st2" d="M156.8,199.2c-0.1-0.2,0.1-0.7,0.1-1.1c0-0.5,0.4-1.2-0.1-1c-0.2,0-0.3-0.1-0.4,0c-0.3,0.3-0.3,2.2-0.4,2.8h0
	c0,0,0,0.1,0,0.1l0,0c0,0,0,0.1,0,0.1v0c-0.1,0.4-0.1,2,0.1,2.2h0.6c0.1-0.2,0.2-0.2,0.2-0.5c0-0.2-0.1-0.3-0.1-0.5
	c0-0.1,0-0.2,0-0.3c0-0.2-0.1-0.5,0-0.7c0-0.1,0-0.1,0-0.2c0,0,0-0.2,0-0.3C156.8,199.8,156.7,199.4,156.8,199.2L156.8,199.2
	L156.8,199.2z"/>
<path class="st2" d="M160.7,202.3c0.2-0.2,0.2-0.5,0.2-0.8c0-0.1,0-2.1,0-2.4c0-0.2,0-0.5,0-0.8c0,0,0.1-0.5,0.1-0.5
	c0.2-0.5,0-0.6-0.3-0.7c-0.3-0.1-0.3-0.2-0.4,0.2c-0.1,0.2-0.1,0.4-0.1,0.7c0,0.3-0.1,0.6-0.1,0.9c0,0,0,0.8,0,0.8c0,0,0,0.1,0,0.2
	c0,0,0,0,0,0l0,0c0,0.1,0.1,0.3,0,0.4c-0.1,0.5,0,1.1-0.1,1.7C160,202.3,160.3,202.5,160.7,202.3L160.7,202.3z"/>
</svg>
