<?xml version="1.0" encoding="utf-8"?>
<!-- Generator: Adobe Illustrator 21.1.0, SVG Export Plug-In . SVG Version: 6.00 Build 0)  -->
<svg version="1.1" id="Слой_1" xmlns="http://www.w3.org/2000/svg" xmlns:xlink="http://www.w3.org/1999/xlink" x="0px" y="0px"
	 viewBox="0 0 100 66.4" style="enable-background:new 0 0 100 66.4;" xml:space="preserve">
<style type="text/css">
	.st0{fill:#AD9963;}
	.st1{fill:#AD0B05;}
</style>
<path class="st0" d="M28.8,53.5c0-0.4,0.1-0.7,0.4-1c0.3-0.3,0.7-0.4,1.1-0.4c0.6,0,1.1,0.2,1.4,0.5l-0.3,0.5
	c-0.3-0.3-0.6-0.4-1.1-0.4c-0.6,0-0.9,0.3-0.9,0.8c0,1.3,2.5,0.8,2.5,2.6c0,0.4-0.2,0.8-0.5,1c-0.3,0.3-0.7,0.4-1.2,0.4
	c-0.3,0-0.7-0.1-1-0.2c-0.3-0.1-0.5-0.3-0.7-0.6l0.4-0.4c0.3,0.4,0.8,0.6,1.3,0.6c0.6,0,1-0.3,1-0.8C31.4,54.8,28.8,55.2,28.8,53.5"
	/>
<path class="st0" d="M32.9,53.1h0.6v0.9h1.2v0.6h-1.2v1.5c0,0.6,0.2,0.8,0.6,0.8c0.2,0,0.4-0.1,0.5-0.2l0.2,0.5
	c-0.2,0.2-0.5,0.3-0.9,0.3c-0.7,0-1.1-0.4-1.1-1.3V53.1z"/>
<path class="st0" d="M36,56.6c0.2,0,0.4,0.2,0.4,0.4c0,0.2-0.2,0.4-0.4,0.4c-0.2,0-0.4-0.2-0.4-0.4C35.6,56.8,35.7,56.6,36,56.6"/>
<path class="st0" d="M38.2,57.4h-0.6v-5.2c0.1,0,0.3,0,0.7,0c0.3,0,0.6,0,0.7,0c0.7,0,1.2,0.2,1.5,0.5c0.3,0.3,0.5,0.7,0.5,1.2
	c0,0.5-0.2,0.8-0.5,1.2c-0.3,0.3-0.8,0.5-1.4,0.5c-0.3,0-0.6,0-0.8,0V57.4z M38.2,52.8v2c0.3,0,0.5,0,0.8,0c0.8,0,1.2-0.4,1.2-1.1
	c0-0.6-0.4-1-1.2-1C38.8,52.8,38.5,52.8,38.2,52.8z"/>
<path class="st0" d="M44.2,57c-0.3,0.3-0.7,0.4-1.3,0.4c-0.5,0-1-0.2-1.3-0.5c-0.3-0.3-0.5-0.7-0.5-1.3c0-0.5,0.2-0.9,0.5-1.3
	c0.3-0.3,0.7-0.5,1.3-0.5c0.4,0,0.8,0.1,1.1,0.4c0.3,0.3,0.4,0.6,0.4,1.1c0,0.2,0,0.3,0,0.4h-2.6c0.1,0.6,0.5,1,1.2,1
	c0.4,0,0.8-0.1,1-0.3L44.2,57z M41.7,55.4h2c0-0.6-0.4-0.9-1-0.9C42.2,54.5,41.8,54.9,41.7,55.4z"/>
<path class="st0" d="M45.1,53.1h0.6v0.9h1.2v0.6h-1.2v1.5c0,0.6,0.2,0.8,0.6,0.8c0.2,0,0.4-0.1,0.5-0.2l0.2,0.5
	c-0.2,0.2-0.5,0.3-0.9,0.3c-0.7,0-1.1-0.4-1.1-1.3V53.1z"/>
<path class="st0" d="M50.5,57c-0.3,0.3-0.7,0.4-1.3,0.4c-0.5,0-1-0.2-1.3-0.5c-0.3-0.3-0.5-0.7-0.5-1.3c0-0.5,0.2-0.9,0.5-1.3
	c0.3-0.3,0.7-0.5,1.3-0.5c0.4,0,0.8,0.1,1.1,0.4c0.3,0.3,0.4,0.6,0.4,1.1c0,0.2,0,0.3,0,0.4h-2.6c0.1,0.6,0.5,1,1.2,1
	c0.4,0,0.8-0.1,1-0.3L50.5,57z M48.1,55.4h2c0-0.6-0.4-0.9-1-0.9C48.6,54.5,48.2,54.9,48.1,55.4z"/>
<path class="st0" d="M51.6,57.4v-3.3h0.6v0.4c0.2-0.3,0.5-0.5,0.8-0.5c0.2,0,0.4,0,0.5,0.1l-0.2,0.6c-0.1-0.1-0.3-0.1-0.5-0.1
	c-0.3,0-0.5,0.2-0.7,0.5v2.4H51.6z"/>
<path class="st0" d="M54,54.9c0-0.6,0.5-0.9,1.1-0.9c0.5,0,0.9,0.1,1.2,0.4L56,54.8c-0.2-0.2-0.5-0.3-0.8-0.3
	c-0.3,0-0.5,0.2-0.5,0.4c0,0.7,1.8,0.4,1.8,1.5c0,0.3-0.1,0.6-0.4,0.8c-0.2,0.2-0.6,0.3-0.9,0.3c-0.3,0-0.5-0.1-0.8-0.2
	c-0.2-0.1-0.4-0.2-0.5-0.4l0.3-0.4c0.1,0.1,0.2,0.2,0.4,0.3c0.2,0.1,0.4,0.1,0.5,0.1c0.3,0,0.6-0.2,0.6-0.5
	C55.8,55.8,54,56.2,54,54.9"/>
<path class="st0" d="M57.3,52.2h0.6v2.2c0.2-0.2,0.7-0.4,1-0.4c0.5,0,0.9,0.2,1.2,0.5c0.3,0.3,0.4,0.7,0.4,1.2c0,0.6-0.2,1-0.5,1.3
	c-0.3,0.3-0.8,0.5-1.4,0.5c-0.6,0-1-0.1-1.4-0.4V52.2z M57.9,55v1.7c0.2,0.2,0.5,0.2,0.8,0.2c0.7,0,1.2-0.5,1.2-1.2
	c0-0.7-0.4-1.2-1.1-1.2C58.4,54.5,58.1,54.7,57.9,55z"/>
<path class="st0" d="M64.3,54.1v3.3h-0.6v-0.5c-0.3,0.3-0.7,0.6-1.2,0.6c-0.8,0-1.2-0.5-1.2-1.4v-2h0.6v1.9c0,0.7,0.3,1,0.9,1
	c0.4,0,0.7-0.2,1-0.5v-2.4H64.3z"/>
<path class="st0" d="M65.4,57.4v-3.3H66v0.4c0.2-0.3,0.5-0.5,0.8-0.5c0.2,0,0.4,0,0.5,0.1l-0.2,0.6c-0.1-0.1-0.3-0.1-0.5-0.1
	c-0.3,0-0.5,0.2-0.7,0.5v2.4H65.4z"/>
<path class="st0" d="M68.5,56.9c-0.1-0.1-0.1-0.4,0-0.6c-0.5-0.2-0.8-0.6-0.8-1.1c0-0.3,0.1-0.6,0.4-0.9c0.3-0.2,0.6-0.4,1-0.4
	c0.3,0,0.6,0.1,0.8,0.2l1-0.2l0,0.5l-0.6,0.2c0.1,0.2,0.2,0.4,0.2,0.6c0,0.3-0.1,0.6-0.4,0.9c-0.3,0.2-0.6,0.3-1,0.3
	c-0.1,0-0.2,0-0.2,0c0,0.1,0,0.1,0,0.2c0,0.1,0,0.2,0.1,0.2c0,0,0.1,0,0.2,0c1,0,1.7,0.4,1.7,1.1c0,0.7-0.7,1.1-1.7,1.1
	c-1,0-1.7-0.4-1.7-1.1C67.5,57.4,67.9,57,68.5,56.9 M69.2,57.3c-0.7,0-1.1,0.2-1.1,0.6c0,0.4,0.4,0.6,1.1,0.6c0.7,0,1.1-0.2,1.1-0.6
	C70.3,57.5,69.9,57.3,69.2,57.3z M69.2,55.9c0.2,0,0.4-0.1,0.6-0.2c0.2-0.1,0.2-0.3,0.2-0.5c0-0.2-0.1-0.4-0.2-0.5
	c-0.1-0.1-0.3-0.2-0.6-0.2c-0.5,0-0.8,0.3-0.8,0.7C68.4,55.6,68.7,55.9,69.2,55.9z"/>
<path class="st0" d="M35.8,15.5c0,7.6,6.2,13.9,13.9,13.9c7.6,0,13.9-6.2,13.9-13.9c0-7.6-6.2-13.9-13.9-13.9
	C42.1,1.6,35.8,7.8,35.8,15.5 M36.9,15.5c0-7,5.7-12.8,12.8-12.8c7,0,12.8,5.7,12.8,12.8c0,7-5.7,12.8-12.8,12.8
	C42.7,28.2,36.9,22.5,36.9,15.5z"/>
<path class="st1" d="M52.6,10.1l-2.3-6.2c4.4,0.2,8.2,2.9,10,6.8c-0.1-0.1-0.1-0.1-0.2-0.2c0,0,0,0,0,0c-1-1-2.4-1.7-4-1.7
	C54.8,8.8,53.6,9.3,52.6,10.1 M41.2,16c0.4-0.3,0.9-0.6,1.4-0.6h0c0.5,0,1.2,0.1,2,0.5c0.1-0.3,0.3-0.7,0.4-1.1
	c-0.8-0.5-1.7-0.8-2.8-0.8c-0.1,0-0.6,0-0.7,0c-1.3,0.2-2.7,1.4-2.7,2.8c0,1.5,1.2,2.7,2.7,2.7c0.3,0,0.7-0.1,1-0.2h0c0,0,0,0,0,0
	c0.6-0.3,1.1-0.9,1.1-1.6c0-1-0.8-1.7-1.7-1.7c-0.3,0-0.7,0-1,0.2C41,16.3,41.1,16.2,41.2,16L41.2,16C41.2,16.1,41.2,16,41.2,16z
	 M56,18.7c2.4,0,4.4-2,4.4-4.4c0-2.4-2-4.4-4.4-4.4c-1.2,0-2.2,0.5-3,1.2l2.8,7.7C55.9,18.7,55.9,18.7,56,18.7z M54.1,18.6l-2-6.4
	c-0.3,0.6-0.5,1.3-0.5,2.1c0,0.7,0.2,1.4,0.5,2c-0.6-0.8-1-1.7-1-2.8c0-0.8,0.2-1.6,0.6-2.3c0,0,0,0,0,0c0,0,0.1-0.1,0.1-0.1l-2-6.4
	l-3.1,9.8c0.8,0.5,1.5,1.1,2.3,1.6C50.5,17.3,52.2,18.2,54.1,18.6z M41.5,13.1c0.1,0,0.2,0,0.2,0c0,0,0.4,0,0.5,0
	c1.2,0,2.2,0.3,3.2,0.7c1.5-4.1,3.1-8.2,3.7-9.9c-6.1,0.3-11,5.4-11,11.6c0,0.1,0,0.2,0,0.4C38.6,14.4,40,13.3,41.5,13.1z
	 M61.3,16.9c-0.8,1.9-2.6,3.3-4.8,3.6l1.2,3.3C59.6,22.1,60.9,19.7,61.3,16.9z M48.2,17.3c-0.7-0.5-1.3-1.1-2-1.5l-0.4,1.2
	c0.1,0,0.1,0.1,0.2,0.1c0.7,0.7,2.5,2.4,4,3.2c1.7,0.9,3,1,3.4,1.1c0,0-1.2,0.3-3.2-0.1c-1.8-0.4-3.6-1.6-4.8-2.8l-2.1,6.7
	c1.8,1.2,4.1,1.9,6.4,1.9c2.4,0,4.6-0.7,6.4-1.9l-1.4-4.6C52,20.2,50.2,18.8,48.2,17.3z M41.6,20.6c-1.2,0-2.2-0.5-2.9-1.4
	c0.6,1.8,1.6,3.4,3,4.6c0.2-0.6,0.7-1.9,1.3-3.5C42.6,20.5,42.1,20.6,41.6,20.6z"/>
<path class="st1" d="M98,46.1l-1-2.5c0,0-0.3-0.8-0.7-1.2c-0.5-0.4-1-0.6-1-0.6l-0.8-0.3h0.6c1.3,0,2.3-1,2.3-2.3
	c0-1.3-1-2.3-2.3-2.3h-1.9h-0.8H92h-0.3h-1.2V37l1.2,0.3v8.8l-1.2,0.3v0.3h1.2h0.7h0.1h0.7h1.2v-0.3l-1.2-0.3v-4.7h0.4l1.4,0.7
	l1.7,4.6h0.8h0.8h1.1v-0.3L98,46.1z M93.3,37.1H94c1.1,0,2,0.9,2,2c0,1.1-0.9,2-2,2h-0.7V37.1z"/>
<path class="st1" d="M28.6,41.3c0.9-0.3,1.5-1.2,1.5-2.2c0-1.3-1-2.3-2.3-2.3h-1.9h-0.8h-0.4h-0.3h-1.2V37l1.2,0.3v8.8l-1.2,0.3v0.3
	h1.2h0.7h0.1h0.7h1.9c1.5,0,2.8-1.2,2.8-2.8C30.6,42.7,29.8,41.6,28.6,41.3 M26.6,37.1c1.1,0,2,0.9,2,2c0,1-0.8,1.9-1.8,2h-1v-4.1
	H26.6z M26.6,46.4h-0.7v-5H27c1.2,0.2,2,1.2,2,2.5C29.1,45.3,28,46.4,26.6,46.4z"/>
<path class="st1" d="M80.8,38.9c-0.4,0.8-0.7,1.7-0.7,2.7c0,0.5,0.1,1.1,0.2,1.6c0.2,0.8,0.6,1.6,1.2,2.1c0.3,0.4,0.7,0.7,1.1,0.9
	c0.5,0.3,1.2,0.5,2.1,0.6v-0.3c-1.4-0.1-2.1-1.1-2.4-1.8c-0.2-0.5-0.5-1.5-0.5-3c0-2.9,1-4,1.2-4.2c0.5-0.6,1.2-0.7,1.8-0.7h0v-0.3
	c-1.2,0-2.4,0.5-3.1,1.3C81.2,38.2,81,38.5,80.8,38.9"/>
<path class="st1" d="M88.5,38.9c-0.2-0.4-0.5-0.7-0.8-1c-0.8-0.8-1.9-1.3-3.1-1.3v0.3h0c0.6,0,1.2,0.1,1.8,0.7
	c0.2,0.2,1.2,1.3,1.2,4.2c0,1.6-0.3,2.5-0.5,3c-0.3,0.7-1,1.7-2.4,1.8v0.3c0.8,0,1.5-0.3,2.1-0.6c0.4-0.2,0.8-0.5,1.1-0.9
	c0.5-0.6,0.9-1.3,1.2-2.1c0.1-0.5,0.2-1.1,0.2-1.6C89.2,40.6,89,39.7,88.5,38.9"/>
<path class="st1" d="M77.5,39c-0.2-0.4-0.5-0.7-0.8-1c-0.8-0.7-1.7-1.2-3-1.2v0h-2.1h-0.3h-0.5h-0.7h-1.2V37l1.2,0.3v8.8l-1.2,0.3
	v0.3h1.2h0.7h0.8v0h2.1c0.8,0,1.4-0.3,2-0.5c0.4-0.2,0.8-0.5,1.1-0.9c0.5-0.5,0.9-1.3,1.2-2.1c0.1-0.5,0.2-1,0.2-1.6
	C78.1,40.7,77.9,39.8,77.5,39 M76,44.7c-0.3,0.7-1,1.6-2.4,1.7h-2v-9.4h2c0.6,0,1.2,0.1,1.8,0.6c0.2,0.2,1.2,1.3,1.2,4.1
	C76.5,43.3,76.2,44.2,76,44.7z"/>
<path class="st1" d="M8,46.1l-3.4-9.3H4.4l-3.2,9.3L0,46.4v0.3h2.8v-0.3l-1.2-0.3l0.9-2.6h3l0.9,2.5l-1.4,0.4v0.3h1.6H7h0.5h0.8h1.1
	v-0.3L8,46.1z M2.7,43.1L4,39.3l1.4,3.8H2.7z"/>
<path class="st1" d="M40.2,46.1l-3.4-9.3h-0.2l-3.2,9.3l-1.2,0.3v0.3H35v-0.3l-1.2-0.3l0.9-2.6h3l0.9,2.5l-1.4,0.4v0.3h1.6h0.3h0.5
	h0.8h1.1v-0.3L40.2,46.1z M34.8,43.1l1.3-3.8l1.4,3.8H34.8z"/>
<path class="st1" d="M66.2,46.1l-3.4-9.3h-0.2l-3.2,9.3l-1.2,0.3v0.3H61v-0.3l-1.2-0.3l0.9-2.6h3l0.9,2.5l-1.4,0.4v0.3h1.6h0.3h0.5
	h0.8h1.1v-0.3L66.2,46.1z M60.8,43.1l1.3-3.8l1.4,3.8H60.8z"/>
<polygon class="st1" points="21.3,37 21.3,36.8 20.1,36.8 19.4,36.8 18.7,36.8 18.7,36.8 18.6,36.8 18.6,36.8 18.6,36.8 16.1,44.2 
	13.4,36.8 11.8,36.8 11.8,36.8 10.9,36.8 10.9,37 12,37.4 12.1,37.4 12.1,46.1 10.9,46.4 10.9,46.7 13.7,46.7 13.7,46.4 12.5,46.1 
	12.5,38.7 15.5,46.7 15.7,46.7 18.6,38.1 18.6,46.1 17.5,46.4 17.5,46.7 18.6,46.7 19.3,46.7 19.4,46.7 20.1,46.7 21.3,46.7 
	21.3,46.4 20.1,46.1 20.1,37.4 "/>
<path class="st1" d="M48.5,42.9c-0.3-0.6-0.8-1-1.4-1.3c-0.3-0.2-2.2-1.2-2.4-1.4c-0.2-0.2-0.4-0.4-0.5-0.8
	c-0.1-0.2-0.1-0.4-0.1-0.6c0-1.2,0.7-1.7,1.5-1.7c0.5,0,1.5,0.2,1.9,1.3l0.3,1.3h0.3v-1.4v-1.4h-0.3l-0.5,0.7
	c-0.6-0.6-1.4-0.8-1.8-0.8c-0.7,0-1.4,0.3-1.9,0.8c-0.5,0.5-0.8,1.2-0.8,2c0,0.2,0,0.3,0.1,0.5c0.1,0.3,0.2,0.5,0.3,0.8
	c0.4,0.6,1.2,1,2,1.4c0.9,0.5,2,0.8,2,2.3c0,0.6-0.2,1.1-0.5,1.4c-0.2,0.2-0.4,0.3-0.6,0.4c-0.2,0.1-0.5,0.1-0.8,0.1
	c-0.1,0-0.2,0-0.3,0c-0.4,0-1-0.2-1.4-0.6h0l-0.2-0.2c-0.1-0.2-0.2-0.4-0.3-0.7h0l-0.3-1h-0.3v1.4v0.5v0.9h0.3l0.5-0.7
	c0.6,0.6,1.5,0.7,1.8,0.7c0,0,0,0,0,0c0.9,0,1.9-0.3,2.6-1c0.6-0.6,0.8-1.3,0.8-1.9C48.7,43.4,48.6,43.2,48.5,42.9"/>
<path class="st1" d="M56.7,42.9c-0.3-0.6-0.8-1-1.4-1.3c-0.3-0.2-2.2-1.2-2.4-1.4c-0.2-0.2-0.4-0.4-0.5-0.8
	c-0.1-0.2-0.1-0.4-0.1-0.6c0-1.2,0.7-1.7,1.5-1.7c0.5,0,1.5,0.2,1.9,1.3l0.3,1.3h0.3v-1.4v-1.4H56l-0.5,0.7
	c-0.6-0.6-1.4-0.8-1.8-0.8c-0.7,0-1.4,0.3-1.9,0.8c-0.5,0.5-0.8,1.2-0.8,2c0,0.2,0,0.3,0.1,0.5c0.1,0.3,0.2,0.5,0.3,0.8
	c0.4,0.6,1.2,1,2,1.4c0.9,0.5,2,0.8,2,2.3c0,0.6-0.2,1.1-0.5,1.4c-0.2,0.2-0.4,0.3-0.6,0.4c-0.2,0.1-0.5,0.1-0.8,0.1
	c-0.1,0-0.2,0-0.3,0c-0.4,0-1-0.2-1.4-0.6h0l-0.2-0.2c-0.1-0.2-0.2-0.4-0.3-0.7l-0.3-1H51v1.4v0.5v0.9h0.3l0.5-0.7
	c0.6,0.6,1.5,0.7,1.8,0.7c0,0,0,0,0,0c0.9,0,1.9-0.3,2.6-1c0.6-0.6,0.8-1.3,0.8-1.9C56.9,43.4,56.9,43.2,56.7,42.9"/>
<path class="st0" d="M40.1,64.5l0.2-0.2c0.2,0.2,0.4,0.2,0.6,0.2c0.2,0,0.3-0.1,0.3-0.2c0-0.1-0.1-0.2-0.4-0.3
	c-0.4-0.1-0.6-0.2-0.6-0.6c0-0.3,0.3-0.6,0.6-0.6c0.3,0,0.5,0.1,0.7,0.2l-0.2,0.3c-0.2-0.1-0.3-0.2-0.5-0.2c-0.2,0-0.3,0.1-0.3,0.2
	c0,0.1,0.1,0.2,0.5,0.3c0.4,0.1,0.6,0.2,0.6,0.6c0,0.4-0.3,0.6-0.7,0.6C40.6,64.8,40.3,64.7,40.1,64.5"/>
<rect x="42.3" y="62.9" class="st0" width="0.3" height="1.9"/>
<polygon class="st0" points="43.4,62.9 43.7,62.9 44.7,64.2 44.7,62.9 45,62.9 45,64.8 44.8,64.8 43.7,63.4 43.7,64.8 43.4,64.8 "/>
<path class="st0" d="M45.7,63.8c0-0.5,0.4-1,1-1c0.4,0,0.6,0.1,0.7,0.3l-0.2,0.2c-0.2-0.1-0.3-0.2-0.5-0.2c-0.4,0-0.6,0.3-0.6,0.7
	c0,0.4,0.3,0.7,0.6,0.7c0.2,0,0.4-0.1,0.5-0.2l0.2,0.2c-0.2,0.2-0.4,0.3-0.8,0.3C46.1,64.8,45.7,64.4,45.7,63.8"/>
<polygon class="st0" points="48.1,62.9 49.5,62.9 49.5,63.2 48.4,63.2 48.4,63.7 49.4,63.7 49.4,64 48.4,64 48.4,64.5 49.5,64.5 
	49.5,64.8 48.1,64.8 "/>
<path class="st0" d="M51.2,64.5l0.7-0.6c0.3-0.2,0.4-0.3,0.4-0.5c0-0.2-0.1-0.3-0.3-0.3c-0.2,0-0.3,0.1-0.4,0.3l-0.2-0.2
	c0.2-0.3,0.4-0.4,0.7-0.4c0.4,0,0.6,0.2,0.6,0.6c0,0.3-0.2,0.5-0.5,0.7l-0.4,0.3h0.9v0.3h-1.4V64.5z"/>
<path class="st0" d="M53.1,63.8c0-0.5,0.3-1,0.8-1c0.5,0,0.8,0.4,0.8,1c0,0.5-0.3,1-0.8,1C53.4,64.8,53.1,64.4,53.1,63.8 M54.4,63.8
	c0-0.4-0.2-0.7-0.5-0.7c-0.3,0-0.5,0.3-0.5,0.7c0,0.4,0.2,0.7,0.5,0.7C54.2,64.5,54.4,64.2,54.4,63.8z"/>
<path class="st0" d="M55.4,63.8c0-0.5,0.3-1,0.8-1c0.5,0,0.8,0.4,0.8,1c0,0.5-0.3,1-0.8,1C55.7,64.8,55.4,64.4,55.4,63.8 M56.7,63.8
	c0-0.4-0.2-0.7-0.5-0.7c-0.3,0-0.5,0.3-0.5,0.7c0,0.4,0.2,0.7,0.5,0.7C56.5,64.5,56.7,64.2,56.7,63.8z"/>
<path class="st0" d="M57.6,64.5l0.2-0.2c0.2,0.1,0.3,0.2,0.5,0.2c0.2,0,0.4-0.1,0.4-0.3c0-0.2-0.2-0.3-0.4-0.3c-0.1,0-0.3,0-0.4,0.1
	l-0.2-0.1l0.1-0.9h1.1v0.3H58l0,0.4c0.1,0,0.2-0.1,0.3-0.1c0.4,0,0.7,0.2,0.7,0.6c0,0.4-0.3,0.6-0.7,0.6
	C58,64.8,57.7,64.7,57.6,64.5"/>
</svg>
