<?xml version="1.0" encoding="utf-8"?>
<!-- Generator: Adobe Illustrator 22.1.0, SVG Export Plug-In . SVG Version: 6.00 Build 0)  -->
<svg version="1.1" id="Слой_1" xmlns="http://www.w3.org/2000/svg" xmlns:xlink="http://www.w3.org/1999/xlink" x="0px" y="0px"
	 viewBox="0 0 570.8 333.9" style="enable-background:new 0 0 570.8 333.9;" xml:space="preserve">
<style type="text/css">
	.st0{fill-rule:evenodd;clip-rule:evenodd;fill:#611700;}
	.st1{fill-rule:evenodd;clip-rule:evenodd;fill:#F77E3E;}
	.st2{fill-rule:evenodd;clip-rule:evenodd;fill:#FFFFFF;}
	.st3{fill:#FFFFFF;}
	.st4{fill:#611700;}
	.st5{font-family:'ComicSansMS';}
	.st6{font-size:40.3111px;}
</style>
<path class="st0" d="M398.4,179.2v-0.7l-0.9,0.2l0.3,0.2C398,179,398.2,179.1,398.4,179.2"/>
<g>
	<path class="st1" d="M281,199.2c4.4-19.5,14.5-39.2,26-59.5c14.7-26,21.1-34.3,21.1-34.3l-0.1-0.1l-0.3-0.3c0,0,0,0-4.8-19.1
		c-4.8-19.1-3.5-36.4,9.1-59.4c12.6-23,39.9-29.9,55.5-25.1c15.6,4.8,18.6,20.4,14.7,38.1c-3.3,15.1-12,32.8-14.5,37.7
		c2.7-0.4,5.7-0.7,8.5-0.6c1.8,0,3.4,0.3,5,0.7l6.7-19.6c7.4-21.7,18.6-35.1,27.7-44.6c9.1-9.5,30.3-11.7,43.3,0
		c13,11.7,7.8,36.4-4.3,58.5c-12.1,22.1-29,33.7-29,33.7c20.4,45.5,38.6,71.5,36,104.3c-0.2,2.5-0.6,5.1-1.1,7.7
		c-0.4-0.1-0.8-0.2-1.3-0.3c-0.2-1.3-0.5-2.5-1.1-3.7c-0.7-1.5-1.8-2.8-3.1-3.8c-0.1-0.1-0.3-0.2-0.4-0.3c-0.8-0.6-1.7-1.1-2.6-1.6
		c-1.1-0.5-2.1-1-3.2-1.3l0,0c-0.1,0-0.1,0-0.2-0.1c-0.1,0-0.3-0.1-0.4-0.1l0,0l0,0c-0.1,0-0.1,0-0.2-0.1c-0.6-0.2-1.2-0.3-1.8-0.4
		c-0.6-0.1-1.3-0.2-2-0.3c-0.6-0.1-1.2-0.1-1.9-0.1c-0.8,0-1.5-0.1-1.9-0.1c-0.1,0-0.5,0-1.3,0l-0.1,0c-0.6,0-1,0-1.2,0.1
		c-0.3,0-0.7,0.1-1.3,0.1c-0.4,0-0.9,0.1-1.3,0.2c-2.2,0.3-4.2,0.7-6.2,1.4c-2,0.7-4,1.5-5.8,2.5c-1.4,0.8-2.6,1.6-3.7,2.6
		c-0.4-0.7-0.9-1.3-1.4-1.8l0,0c-0.8-0.9-1.7-1.7-2.7-2.3c-1-0.7-2.1-1.2-3.2-1.6c-1.1-0.4-2.1-0.7-3.1-0.8
		c-1.1-0.2-2.1-0.3-3.2-0.3h-0.8c-0.2,0-0.5,0-1,0.1c-0.3,0-0.6,0.1-0.8,0.1c-0.9,0.1-1.7,0.2-2.5,0.4c-0.8,0.2-1.6,0.4-2.4,0.6
		c0,0-0.1,0-0.1,0c-0.6-0.2-1.2-0.3-1.8-0.3v0h-14.3c-2.7,0-4.9,1.8-5.6,4.2c-0.2,0.7-0.6,1.7-1,3c-0.6-0.7-1.2-1.3-1.9-1.9
		c-0.1-0.1-0.2-0.2-0.3-0.3c-1-0.9-2-1.7-3.1-2.3c-1.2-0.8-2.6-1.4-4-1.9c-1.3-0.5-2.6-0.8-3.9-1.1c-1.2-0.3-2.5-0.5-4-0.6
		c-0.2,0-0.3,0-0.5,0v0c-0.6,0-0.1,0-0.4,0c0,0-0.1,0-0.4,0v0c-0.1,0-0.3,0-0.8,0c-0.7,0-0.6,0-0.8,0c-1.6,0-3.2,0.1-4.8,0.4
		c-1.6,0.2-3.2,0.6-4.7,1c-1.5,0.4-2.9,1-4.4,1.7c-1.4,0.6-2.8,1.4-4,2.2c-0.7,0.5-1.4,1-2.1,1.5c-0.6-0.9-1.3-1.6-2.2-2.3
		c-0.1-0.1-0.3-0.2-0.4-0.3c-0.8-0.6-1.7-1.1-2.6-1.6c-1.1-0.5-2.1-1-3.2-1.3l0,0c-0.1,0-0.1,0-0.2-0.1c-0.1,0-0.3-0.1-0.4-0.1l0,0
		l-0.1,0l0,0l0.1,0l0,0c0.1,0,0.1,0,0,0l0,0l0,0l-0.1,0l0,0c-0.6-0.2-1.3-0.3-1.9-0.5c-0.6-0.1-1.3-0.2-2-0.3
		c-0.6-0.1-1.2-0.1-1.9-0.1c-0.8,0-1.5-0.1-1.9-0.1c0,0-0.5,0-1.3,0l0,0v0c-0.6,0-1,0-1.3,0.1c-0.3,0-0.7,0.1-1.3,0.1
		c-0.4,0-0.9,0.1-1.3,0.2c-2.2,0.3-4.2,0.7-6.2,1.4c-1.2,0.4-2.4,0.9-3.5,1.4l1.4-4l2.1-5.9c1-3-0.6-6.3-3.6-7.4
		c-0.6-0.2-1.3-0.3-1.9-0.3v0h-0.3c-1,0-2,0.3-2.9,0.7c-1.3,0.6-3.2,1.4-5.8,2.2c-2.5,0.8-5.5,1.7-9.2,2.6c-0.1,0-0.2,0.1-0.4,0.1
		c-1.1,0.3-2.1,1-2.8,1.8c-0.2-0.1-0.5-0.2-0.7-0.3c-0.9-0.3-1.9-0.4-2.8-0.3l0,0c-2.2,0.3-4.4,0.6-6.7,0.7
		c-2.8,0.2-5.3,0.4-7.5,0.4C282.2,198.8,281.6,198.9,281,199.2"/>
	<path class="st2" d="M377,90.4c0,0,22.9-7.5,40.7,12.2c17.8,19.6,7.5,32.7-6.5,33.2c-14,0.5-31.3,3.7-31.3,3.7l10.2,69
		c-1.1-0.6-2.2-1.1-3.5-1.6c-1.3-0.5-2.6-0.8-3.9-1.1c-1.2-0.3-2.5-0.5-4-0.6c-0.2,0-0.3,0-0.5,0v0c-0.6,0-0.1,0-0.4,0
		c0,0-0.1,0-0.4,0v0c-0.1,0-0.3,0-0.8,0c-0.7,0-0.6,0-0.8,0c-1.6,0-3.2,0.1-4.8,0.4c-1.6,0.2-3.2,0.6-4.7,1c-1.5,0.4-2.9,1-4.4,1.7
		c-1.4,0.6-2.8,1.4-4,2.2c-0.7,0.5-1.4,1-2.1,1.5c-0.6-0.9-1.3-1.6-2.2-2.3c-0.1-0.1-0.3-0.2-0.4-0.3c-0.8-0.6-1.7-1.1-2.6-1.6
		c-1.1-0.5-2.1-1-3.2-1.3l0,0c-0.1,0-0.1,0-0.2-0.1c-0.1,0-0.3-0.1-0.4-0.1l0,0l-0.1,0l0,0l0.1,0l0,0c0.1,0,0.1,0,0,0l0,0l0,0
		l-0.1,0l0,0c-0.6-0.2-1.3-0.3-1.9-0.5c-0.6-0.1-1.3-0.2-2-0.3c-0.6-0.1-1.2-0.1-1.9-0.1c-0.8,0-1.5-0.1-1.9-0.1c0,0-0.5,0-1.3,0
		l0,0v0c-0.6,0-1,0-1.3,0.1c-0.3,0-0.7,0.1-1.3,0.1c-0.4,0-0.9,0.1-1.3,0.2c-2.2,0.3-4.2,0.7-6.2,1.4c-1.2,0.4-2.4,0.9-3.5,1.4
		l1.4-4l2.1-5.9c1-3-0.6-6.3-3.6-7.4c-0.6-0.2-1.3-0.3-1.9-0.3v0h-0.3c-1,0-2,0.3-2.9,0.7c-1.3,0.6-3.2,1.4-5.8,2.2
		c-2.5,0.8-5.5,1.7-9.2,2.6c-0.1,0-0.2,0.1-0.4,0.1c-1.1,0.3-2.1,1-2.8,1.8c-0.2-0.1-0.5-0.2-0.7-0.3c-0.5-0.2-1-0.3-1.5-0.3
		c4.2-36.6,24.5-68.6,36.6-82c13.6-15,26.2-22.9,26.2-22.9s-16.4-17.8-16.4-35.6c0-17.8,10.3-31.3,23.4-31.8
		c13.1-0.5,21.1,9.4,15.9,24.3c-5.1,15-11.7,42.6-11.7,42.6L377,90.4z"/>
	<path class="st0" d="M382.1,78.1l-3.3,8.1c0,0,8.7-4,15.9-4.6c7.2-0.6,22.8,1.3,22.8,1.3s-13.3-6.1-21.2-6.3
		C388.5,76.4,382,78.2,382.1,78.1"/>
	<path class="st0" d="M486,225.6c1.1-6,1.3-11,1.3-14.8c0-40.7-28.8-68.9-36-104.4c0,0,13-9.5,25.1-31.6
		c12.1-22.1,15.9-50.2,2.6-61.5C465.8,1.7,448.7,2,438,8.2c-27.3,15.9-39.7,71-37.6,71.2l5.9,0.7c1.5,0.2,22.7-84.5,62-60.9
		c10.8,6.5,15.2,28.6-2.2,50.7C450.9,89.2,438.5,94,438.5,94c11.8,33.9,46.4,86.6,40.6,121.7c0.1,0.4,0.2,0.9,0.2,1.3
		c0.6,0.1,1.1,0.2,1.6,0.4c1.1,0.4,2.2,1.1,3,2C485.4,221,486.3,223.1,486,225.6 M387.2,78.6c0,0,11.3-21.2,15.2-39
		c3.9-17.8,0.9-33.4-14.7-38.1c-15.6-4.8-42.9,2.2-55.5,25.1c-12.6,23-13.9,40.3-9.1,59.4c4.8,19.1,4.8,19.1,4.8,19.1l0.3,0.3
		l0.1,0.1c-18.5,23.9-39.8,62.4-47.8,94.1c0.8-0.4,1.6-0.6,2.6-0.7c1.4,0,3-0.1,4.6-0.2c9.3-38.1,34.2-86.2,59-103.6
		c-17.5-26.3-16.1-78.6,23-83.6c16.9-2.2,29.5,4.3,28.2,19.5C396.3,46.1,380,83.3,380,83.3L387.2,78.6z"/>
	<path class="st0" d="M383.5,136.6c24.1,0,43.6,16.6,43.6,37.1c0,13.9-9,26-22.3,32.3h-2.3c-2.1,0-3.9,1.1-4.9,2.8
		c-1.7,0.5-3.4,0.9-5.2,1.2c-0.6-0.5-1.2-0.9-1.8-1.2c-1.2-0.8-2.6-1.4-4-1.9c-1.3-0.5-2.6-0.8-3.9-1.1c-1.2-0.3-2.5-0.5-4-0.6
		c-0.2,0-0.3,0-0.5,0v0c-0.6,0-0.1,0-0.4,0c0,0-0.1,0-0.4,0v0c-0.1,0-0.3,0-0.8,0c-0.7,0-0.6,0-0.8,0c-1.6,0-3.2,0.1-4.8,0.4
		c-1.6,0.2-3.2,0.6-4.7,1c-0.6,0.2-1.2,0.4-1.8,0.6c-14.5-6-24.5-18.7-24.5-33.3C339.9,153.2,359.4,136.6,383.5,136.6"/>
	<path class="st0" d="M377.9,112.8c2.3,0,4.1,2,4.1,4.5c0,2.5-1.8,4.6-4.1,4.6s-4.1-2-4.1-4.6C373.7,114.8,375.6,112.8,377.9,112.8"
		/>
	<path class="st0" d="M389.1,112.8c2.3,0,4.1,2,4.1,4.5c0,2.5-1.8,4.6-4.1,4.6c-2.3,0-4.1-2-4.1-4.6
		C385,114.8,386.9,112.8,389.1,112.8"/>
	<path class="st2" d="M401.3,164.4c3.4-0.9,7,1.7,8,5.7c1,4-0.9,8-4.3,8.8c-3.4,0.9-7-1.7-8-5.7
		C395.9,169.2,397.8,165.3,401.3,164.4"/>
	<path class="st2" d="M433.6,84.3c2.3-0.9,33.2-27.1,30.9-39.8c-2.3-12.6-8.9-19.6-22.9-8c-14,11.7-18.7,42.1-18.7,42.1L433.6,84.3z
		"/>
</g>
<path class="st3" d="M175.7,158.3c-1.1,0.7-2.2,1.3-3.4,1.8c4.3,0.2,9.4,0.4,14.6,0.5c1.3,0,2.6,0.1,3.9,0.6c1,0.3,1.9,0.8,2.7,1.4
	c1.7-1.3,3.8-2,6.1-2.1c4.1-0.1,8.7-0.3,13.8-0.8c4.1-0.3,8.3-0.8,12.2-1.4l0,0c1.7-0.2,3.4-0.1,5.1,0.5c0.5,0.2,0.9,0.4,1.3,0.6
	c1.3-1.6,3.1-2.7,5.2-3.3c0.2-0.1,0.4-0.1,0.7-0.2c6.8-1.7,12.4-3.3,16.9-4.8c4.9-1.6,8.4-3,10.8-4.1c1.6-0.9,3.3-1.4,5.3-1.4h0.6v0
	c1.2,0,2.3,0.2,3.5,0.6c5.6,1.9,8.5,8,6.6,13.5l-3.8,10.9l-2.5,7.3c2.1-1,4.3-1.8,6.5-2.5c3.6-1.2,7.4-2,11.4-2.6
	c0.9-0.1,1.7-0.2,2.4-0.3c1.1-0.1,1.9-0.2,2.4-0.2c0.4,0,1.2-0.1,2.4-0.1v0l0,0c1.5-0.1,2.2-0.1,2.3-0.1c0.8,0,1.9,0,3.4,0.1
	c1.1,0.1,2.3,0.1,3.4,0.3c1.3,0.1,2.5,0.3,3.6,0.5c1.2,0.2,2.4,0.5,3.6,0.9l0,0l0.1,0l0,0l0.1,0c0.2,0,0.1,0-0.1,0l0,0l-0.1,0l0,0
	l0.1,0l0,0c0.3,0.1,0.5,0.1,0.8,0.2c0.1,0,0.3,0.1,0.4,0.1l0.1,0c2,0.6,4,1.3,6,2.3c1.7,0.9,3.3,1.8,4.8,3c0.2,0.2,0.5,0.3,0.7,0.5
	c1.6,1.2,2.9,2.6,4,4.2c1.2-1,2.5-1.9,3.9-2.8c2.3-1.5,4.8-2.8,7.4-4c2.7-1.2,5.4-2.2,8.1-3.1c2.8-0.8,5.7-1.5,8.7-1.9
	c3-0.4,6-0.7,8.9-0.7c0.3,0,0.2,0,1.4,0.1c0.9,0,1.3,0,1.5,0.1v0c0.5,0,0.6,0,0.7,0c0.5,0-0.3,0,0.8,0v0c0.3,0,0.6,0,1,0
	c2.7,0.3,5.1,0.6,7.3,1.1c2.3,0.5,4.7,1.2,7.1,2.1c2.6,0.9,5.1,2.1,7.4,3.5c1.9,1.2,3.8,2.6,5.7,4.2c0.2,0.2,0.4,0.3,0.6,0.5
	c1.2,1.1,2.4,2.3,3.4,3.5c0.8-2.4,1.5-4.2,1.9-5.5c1.3-4.5,5.4-7.8,10.3-7.8h26.3v0c1.1,0,2.2,0.2,3.3,0.5c0.1,0,0.1,0,0.2,0.1
	c1.5-0.5,2.9-0.9,4.4-1.2c1.4-0.3,3-0.6,4.6-0.7c0.4-0.1,0.9-0.1,1.5-0.2c0.8-0.1,1.4-0.1,1.8-0.1h1.4c1.9,0,3.9,0.2,5.8,0.5
	c1.8,0.3,3.7,0.8,5.6,1.5c2.1,0.7,4.1,1.7,5.9,3c1.9,1.3,3.5,2.7,5,4.3l0,0c1,1.1,1.8,2.2,2.6,3.4c2-1.8,4.3-3.4,6.8-4.8
	c3.5-1.9,7-3.5,10.7-4.7c3.6-1.2,7.4-2,11.4-2.6c0.9-0.1,1.7-0.2,2.4-0.3c1.1-0.1,1.9-0.2,2.4-0.2c0.4,0,1.2-0.1,2.3-0.1l0.1,0
	c1.5-0.1,2.2-0.1,2.4-0.1c0.8,0,1.9,0,3.4,0.1c1.1,0.1,2.3,0.1,3.4,0.3c1.3,0.1,2.5,0.3,3.6,0.5c1.2,0.2,2.3,0.5,3.3,0.8
	c0.1,0,0.3,0.1,0.4,0.1c0,0,0,0,0,0l0,0c0.3,0.1,0.5,0.1,0.8,0.2c0.1,0,0.3,0.1,0.4,0.1l0.1,0c2,0.6,4,1.3,6,2.3
	c1.7,0.9,3.3,1.8,4.8,3c0.2,0.2,0.5,0.3,0.7,0.5c2.4,1.9,4.3,4.3,5.7,7c1,2.1,1.7,4.3,2,6.7c1,0.2,2,0.4,3,0.8c2.1,0.8,4,2,5.5,3.6
	c3,3.2,4.7,7.6,3.5,12.9c-0.2,1.2-0.7,2.4-1.3,3.5l-0.8,1.3c-6,10.2-11.3,19.1-23.6,25.1c-0.2,0.1-0.4,0.2-0.6,0.3
	c-2,0.9-4,1.7-6,2.3c-2,0.6-4,1.1-6.2,1.6c-1.9,0.4-4,0.7-6.3,0.9c-2.3,0.2-4.4,0.3-6.3,0.3h-1.7c-0.3,0-0.9,0-1.8-0.1
	c-0.3,0-0.5-0.1-0.8-0.1c-1.3-0.1-2.5-0.2-3.5-0.3c-1.4-0.2-2.8-0.4-4.1-0.6c-1.4-0.3-2.6-0.5-3.8-0.8c-0.7-0.2-1.6-0.4-2.8-0.8
	c-0.4-0.1-0.8-0.2-1.1-0.3c-3.4-1.2-6.7-2.8-9.7-4.7c-0.7-0.4-1.4-0.9-2-1.4c-3.1,2.7-6.7,4.8-10.6,6.2c-4.6,1.7-9.7,2.6-15.3,2.6
	c-0.1,0-0.3,0-1.3-0.1l-0.5,0c-0.2,0-0.4,0-0.7,0l-0.1,0v0c-0.5,0-0.2,0-0.3,0l-0.2,0c0,0,0,0-0.3,0v0c-0.4,0-0.8,0-1.3-0.1
	c-1.6-0.2-3.2-0.5-4.8-0.9c-1.6-0.4-3.1-0.9-4.6-1.5c-2-0.8-3.9-1.8-5.6-3.1c-1.5-1.1-2.8-2.5-4.1-4c-0.2-0.2-0.4-0.5-0.6-0.7
	c-0.2-0.3-0.4-0.6-0.6-0.8l-0.4,1.1c-0.1,0.4-0.3,0.8-0.4,1.2l0,0.1c0,0,0,0,0,0.1c-1.3,4.4-5.4,7.6-10.2,7.6h-26.3v0
	c-1.1,0-2.3-0.2-3.4-0.6c-2-0.7-3.6-1.9-4.8-3.4c-0.6,0.4-1.3,0.8-2,1.1c-2.6,1.4-5.2,2.6-8,3.6c-0.2,0.1-0.4,0.1-0.6,0.2
	c-2.9,1-5.9,1.8-8.9,2.4c-2.7,0.5-5.4,0.9-8.3,1.1c-0.5,0.1-0.9,0.1-1.4,0.1H364h-1.3c-2.8,0-5.8-0.2-8.8-0.7c-3-0.5-5.8-1.1-8.6-2
	c-2.9-0.9-5.6-2.1-8.2-3.6c-2.7-1.5-5.1-3.2-7.4-5.1l0,0l-0.1-0.1c-1.8,1.2-3.8,2.3-6,3.4c-0.2,0.1-0.3,0.2-0.5,0.3
	c-2,0.9-4,1.7-6,2.3c-2,0.6-4,1.1-6.3,1.6c-1.9,0.4-4,0.7-6.3,0.9c-2.3,0.2-4.4,0.3-6.3,0.3h-1.7c-0.3,0-0.9,0-1.8-0.1
	c-0.3,0-0.5-0.1-0.8-0.1c-1.3-0.1-2.5-0.2-3.5-0.3c-1.4-0.2-2.8-0.4-4.1-0.6c-1.4-0.3-2.6-0.5-3.8-0.8c-0.7-0.2-1.6-0.4-2.8-0.8
	c-0.4-0.1-0.8-0.2-1.1-0.3c-3.4-1.2-6.7-2.8-9.7-4.7c-0.6-0.4-1.2-0.8-1.8-1.2c-2.9,2.6-6.3,4.6-10.2,6c-4.6,1.7-9.8,2.6-15.4,2.6
	c0,0-0.4,0-1.2-0.1c-0.2,0-0.7,0-1.2-0.1l0,0c0,0,0,0-0.1,0c-0.1,0-0.1,0-0.2,0c0,0,0,0-0.2,0v0c-0.4,0-0.8,0-1.3-0.1
	c-1.7-0.2-3.3-0.5-4.9-0.9c-1.6-0.4-3.2-0.9-4.7-1.5c-1.8-0.7-3.5-1.6-5.1-2.8c-2,1.1-4,2.1-6.1,2.9c-4.5,1.7-9.5,2.5-15,2.5H201
	h-0.4v0c-0.1,0-0.3,0-0.4,0c-1.9-0.1-3.8-0.3-5.6-0.7c-1.9-0.4-3.7-0.9-5.4-1.6c-2.1-0.8-3.9-1.9-5.6-3.2c-2,1.1-4,2.1-6.1,2.9
	c-4.5,1.7-9.5,2.5-15,2.5H162h-0.4v0c-0.1,0-0.3,0-0.4,0c-1.9-0.1-3.8-0.3-5.6-0.7c-1.9-0.4-3.7-0.9-5.4-1.6c-2.1-0.8-4-1.9-5.7-3.2
	l0,0c-1.6,0.9-3.3,1.8-5.2,2.5c-0.3,0.2-0.7,0.3-1,0.4c-1.9,0.7-4,1.2-6.3,1.7c-1.9,0.4-3.8,0.6-5.6,0.8c-0.5,0.1-1,0.1-1.5,0.1
	h-0.6h-0.6c-0.8,0-1.7,0-2.8-0.1c-0.8-0.1-1.7-0.1-2.8-0.3c-1.1-0.1-2.2-0.3-3.2-0.6l0,0c-1.3-0.3-2.3-0.6-3.1-0.9l0,0
	c-0.5-0.2-1-0.4-1.5-0.6c-14.5,6.2-23.9,1.6-34.9-5.2c-1,0.6-2.1,1.1-3.1,1.6c-14.4,6.9-31.7,8.7-46.4,7.5
	c-15.3-1.3-28.7-6.6-34.5-13.7c-0.3-0.3-0.5-0.6-0.8-0.9c-0.5-0.7-1-1.5-1.4-2.3c-0.2-0.3-0.3-0.7-0.5-1c-1.8-4.3-2-9-0.7-13.8
	c1.3-4.7,4.1-9.6,8.4-13.9c3.9-3.9,9-7.4,15.4-10.1c10.7-4.5,25.2-6.6,43-3.4c1.1-3.2,2.1-6.7,3.3-10.3c10.2-32.6,24.1-77,62.9-89.2
	l0,0c0.1,0,0.1,0,0.2-0.1l0,0c0.1,0,0.2-0.1,0.3-0.1c30.4-8.5,50.4-2.6,61.7,8.7c9,9,12.2,21.3,10.7,32.7
	C192.1,141.4,185.8,152.2,175.7,158.3"/>
<path class="st0" d="M314.5,201.9c0-1.6-0.4-2.7-1.3-3.4c-0.8-0.7-2.1-1-3.7-1.1c-3.5-0.1-6.5,1.2-9,4c-2.5,2.7-4.5,5.7-5.8,9
	c-0.5,1.1-0.8,2.3-1.1,3.4c-0.3,1.1-0.5,2.2-0.7,3.1c1.1-0.1,2.3-0.2,3.5-0.4c1.2-0.2,2.5-0.5,3.7-0.8c3.6-0.9,6.9-2.5,9.8-4.7
	C312.9,208.8,314.4,205.8,314.5,201.9 M188.4,199.4h-6.2c-0.7,2-1.3,4-2.1,6c-0.7,2-1.4,4.1-2,6.2c-0.8,2.1-1.5,4.1-2.1,6.2
	c-0.7,2-1.4,4-2.1,6c-0.2,0.7-0.4,1.3-0.5,1.9c-0.1,0.6-0.2,1.2-0.2,1.6c0,0.8,0.2,1.4,0.6,1.8c0.4,0.3,0.9,0.5,1.6,0.5
	c0.6,0,1.2-0.1,1.9-0.4c0.7-0.3,1.4-0.7,2.2-1.1c0.4-0.3,0.8-0.6,1.2-0.8c0.4-0.3,0.8-0.6,1.2-1c1.8-1.6,3.3-3.4,4.4-5.4
	c1.1-2,2.2-4,3.1-6.1l0.1,0c0.2-0.5,0.4-1.1,0.6-1.6c0.5-1.5,1-3.1,1.5-4.7c0.5-1.5,1-3,1.5-4.5c0.5-1.5,1.1-3,1.6-4.5h-4.8H188.4z
	 M150.6,180c-0.6,1.8-1.6,3.3-3.1,4.5c-1.5,1.2-3.1,2-4.8,2.6c-0.4,0.1-0.7,0.2-1,0.2c-0.3,0-0.6,0.1-0.8,0.2
	c-0.8,0.1-1.5,0.2-2.3,0.3c-0.8,0.1-1.6,0.1-2.3,0.1c-2.1,0-4.1-0.3-6.2-0.8c-2.1-0.5-3.9-1.4-5.5-2.6c-1.2-0.9-2.2-2-2.9-3.3
	c-0.7-1.3-1.1-2.6-1.1-3.9c0-0.8,0.1-1.5,0.4-2.3c0.3-0.8,0.7-1.5,1.1-2.1c1.3-1.7,3-3,5.2-3.8c2.1-0.8,4.3-1.4,6.6-1.6
	c0.3,0,0.5,0,0.8,0c0.2,0,0.5,0,0.8,0c1,0,2.1,0.1,3.1,0.2c1,0.1,2,0.4,3,0.6c0.3,0.1,0.6,0.2,0.8,0.3c0.3,0.1,0.5,0.2,0.7,0.3
	c2,0.8,3.8,2,5.4,3.5c1.6,1.5,2.5,3.3,2.5,5.5c0,0.3,0,0.6-0.1,0.9C150.8,179.3,150.7,179.6,150.6,180z M538.5,201.9
	c0-1.6-0.4-2.7-1.3-3.4c-0.8-0.7-2.1-1-3.7-1.1c-3.5-0.1-6.5,1.2-9,4c-2.5,2.7-4.5,5.7-5.8,9c-0.5,1.1-0.8,2.3-1.1,3.4
	c-0.3,1.1-0.5,2.2-0.7,3.1c1.1-0.1,2.3-0.2,3.5-0.4c1.2-0.2,2.5-0.5,3.7-0.8c3.6-0.9,6.9-2.5,9.8-4.7
	C536.8,208.8,538.4,205.8,538.5,201.9z M30.6,221.9c11.1-2.2,19.9-1.8,28.9,0.9c-4.4,5.4-11.9,8.7-23,11
	c-11.1,2.2-19.6,1.1-23.1-1.8C14.1,228.6,19.5,224.1,30.6,221.9z M107,229.9c-5.7,1.5-11.6-0.2-16.8-6.6
	c11.1-34.6,18.8-50.9,28.2-79.7c20.7-56.1,79.2-9.4,17.5,9.9c56.6,37,77.2-70.6-10.3-46.1c-41.7,13-51.6,73.8-62.6,101.9
	C17.4,197-5.1,221.6,0,233.9c5.8,12.1,51.2,18.6,76.8,0.4c12.1,7.5,20.3,14.1,35.1,5.8c1.3,1,2.9,1.9,4.9,2.6c1.3,0.5,2.7,0.8,4.1,1
	c1.4,0.2,2.8,0.3,4.2,0.3c0.2,0,0.4,0,0.6,0c0.2,0,0.4,0,0.6,0c3.4-0.2,6.7-0.8,9.8-2c3.2-1.1,5.9-2.7,8.3-4.8
	c1.2-1.1,2.3-2.2,3.4-3.4c0.4,1.4,1,2.6,1.9,3.8c1.5,2.3,3.5,3.9,5.9,4.8c2.4,0.9,4.9,1.5,7.6,1.6c0.1,0,0.2,0,0.4,0
	c0.1,0,0.3,0,0.5,0c4.2,0,8-0.6,11.2-1.8c3.3-1.2,6.1-2.9,8.4-4.9c1.2-1,2.3-2.1,3.3-3.3c0.4,1.3,1,2.6,1.8,3.7
	c1.5,2.3,3.5,3.9,5.9,4.8c2.4,0.9,4.9,1.5,7.6,1.6c0.1,0,0.2,0,0.4,0c0.1,0,0.3,0,0.5,0c4.2,0,8-0.6,11.2-1.8
	c3.3-1.2,6.1-2.9,8.4-4.9c1.1-1,2.1-2,3.1-3.1c0.5,1.3,1.1,2.5,1.9,3.6c1.4,2,3.3,3.4,5.5,4.3c2.3,0.9,4.6,1.5,6.9,1.8
	c0.5,0,1,0,1.5,0.1c0.5,0,1,0.1,1.5,0.1c8.9,0,15.6-2.5,20.2-7.6c1.7-1.8,3.3-3.8,4.8-5.9c0.6,0.9,1.3,1.8,2.1,2.7
	c3.5,3.9,8,6.7,13.5,8.6c2.1,0.7,4.2,1.2,6.4,1.6c2.2,0.4,4.4,0.7,6.6,0.8c0.5,0.1,1,0.1,1.6,0.1c0.6,0,1.1,0,1.7,0
	c3.6,0,7.1-0.3,10.5-1c3.4-0.7,6.7-1.7,9.8-3.1c5.2-2.4,9.2-5.6,12.1-9.4c1.2,2.7,3.2,5.2,5.8,7.6c3.4,2.9,7.4,5.1,11.9,6.6
	c4.5,1.5,9.2,2.2,14.1,2.2c0.5,0,0.9,0,1.3,0c0.4,0,0.8,0,1.2,0c5.2-0.3,10.3-1.3,15.2-3c4.9-1.7,9.3-4.1,12.9-7.1
	c1.1,0.7,2.3,1.2,3.6,1.6c1.3,0.4,2.6,0.6,4,0.6c1,0,2-0.1,2.9-0.3c-0.4,1.2-0.8,2.4-1.2,3.6h26.3c0.1-0.3,0.2-0.5,0.3-0.8
	c0.1-0.2,0.2-0.4,0.3-0.6c0.6-1.7,1.1-3.4,1.7-5.2c0.6-1.7,1.1-3.5,1.7-5.3c1.4-3.9,2.9-7.7,4.5-11.4c1.6-3.7,3.5-7.2,5.8-10.4
	c1.6-2.2,3-3.7,4.2-4.6c1.2-0.9,2.3-1.3,3.3-1.3c0.8,0,1.3,0.3,1.6,0.8c0.3,0.5,0.5,1.2,0.5,1.9c0,0.6-0.1,1.2-0.2,1.9
	c-0.1,0.7-0.3,1.4-0.5,2.2c-0.2,0.5-0.4,0.9-0.5,1.3c-0.1,0.4-0.3,0.9-0.4,1.3c-0.4,0.8-0.7,1.6-1,2.3c-0.3,0.7-0.5,1.1-0.6,1.4
	c-0.5,1.3-1,2.7-1.5,4.2c-0.5,1.5-0.9,3-1.2,4.5c-0.1,0.7-0.2,1.4-0.3,2.1c-0.1,0.8-0.1,1.5-0.1,2.3c0,1.5,0.2,3,0.6,4.5
	c0.4,1.5,1.1,2.9,2.1,4.2c1.4,1.9,3.2,3.3,5.4,4.1c2.2,0.8,4.4,1.4,6.8,1.7c0.6,0,1.1,0,1.7,0.1c0.6,0,1.1,0.1,1.7,0.1
	c8.7,0,15.5-2.5,20.4-7.6c1.8-1.8,3.5-3.8,5.1-5.9c0.6,0.9,1.3,1.9,2.1,2.7c3.5,3.9,8,6.7,13.5,8.6c2.1,0.7,4.2,1.2,6.4,1.6
	c2.2,0.4,4.4,0.7,6.6,0.8c0.5,0.1,1,0.1,1.6,0.1c0.6,0,1.1,0,1.7,0c3.6,0,7.1-0.3,10.5-1c3.4-0.7,6.7-1.7,9.8-3.1
	c10-4.7,14.5-13,20.1-22.3c0,0,0,0,0,0c0,0,0,0,0,0c1.4-4.8-5.4-6.6-7.1-3.2l0,0.1c-2.7,6-6.5,10.9-11.3,14.9
	c-4.8,4-10.7,5.9-17.8,5.9c-3.5,0-6.3-0.9-8.4-2.8c-2.1-1.8-3.4-4.5-3.9-7.8c2,0.1,4.3,0,7.1-0.3c2.7-0.3,5.6-0.8,8.5-1.6
	c5.3-1.3,10.1-3.4,14.6-6.4c4.4-2.9,6.6-6.9,6.4-12c-0.1-3.2-1.3-5.7-3.7-7.6c-2.4-1.9-5-3.2-7.7-4c-0.3-0.1-0.5-0.2-0.8-0.2
	c-0.2,0-0.5-0.1-0.8-0.2c-1.6-0.5-3.3-0.8-5.2-1c-1.9-0.2-3.8-0.3-5.8-0.3c-1.3,0-2.7,0-4,0.1c-1.4,0.1-2.8,0.2-4.2,0.4
	c-6.5,0.8-12.6,2.9-18.4,6c-5.7,3.2-9.6,7.6-11.5,13.2c-0.5,1.4-0.8,2.8-1.1,4.2c-0.2,1.4-0.4,2.7-0.4,4c0,0.7,0,1.3,0.1,1.9
	c-0.3,0.3-0.5,0.7-0.8,1c-0.9,1.2-2,2.4-3.2,3.6c-1.2,1.2-2.3,2.1-3.5,2.9c-0.6,0.3-1.1,0.5-1.6,0.7c-0.5,0.2-1.1,0.3-1.6,0.3
	c-0.7,0-1.1-0.2-1.4-0.5c-0.3-0.3-0.4-0.7-0.4-1.2c0-0.2,0-0.4,0.1-0.7c0-0.3,0.1-0.5,0.2-0.7c0-0.3,0-0.5,0.1-0.8
	c0.1-0.2,0.2-0.4,0.3-0.6c0.1-0.4,0.2-0.7,0.3-1c0.1-0.3,0.2-0.5,0.3-0.7c0.3-1,0.6-2.1,1-3c0.4-1,0.8-2,1.1-2.9c0.3-1,0.6-2,1-3
	c0.4-1,0.7-2,1-2.9c0.2-0.5,0.3-0.9,0.4-1.3c0.1-0.4,0.2-0.9,0.3-1.3c0.1-0.4,0.2-0.8,0.2-1.3c0-0.5,0.1-0.9,0.1-1.3
	c0-1.7-0.3-3.3-0.8-4.9c-0.6-1.6-1.5-3.1-2.7-4.4c-1.9-2.1-4.1-3.6-6.6-4.5c-2.5-0.9-5.1-1.3-7.8-1.3c-0.5,0-0.9,0-1.4,0
	s-0.9,0-1.4,0.1c-2.8,0.3-5.6,0.9-8.3,1.8c-2.7,0.9-5.1,2-7.3,3.2c0.1-0.3,0.2-0.6,0.3-0.8c0.1-0.3,0.2-0.6,0.4-1
	c0.1-0.3,0.2-0.6,0.3-0.8c0.1-0.3,0.2-0.6,0.3-0.8h-26.3c-2.9,8.3-5.8,16.6-8.6,24.8c-0.2,0.5-0.3,1-0.5,1.5
	c-0.2,0.2-0.4,0.5-0.6,0.7c-0.9,1.1-1.9,2-2.9,2.5c-1,0.5-2.1,0.9-3.5,1.1c0.4-1.1,0.7-2.3,0.8-3.4c0.2-1.1,0.3-2.3,0.3-3.4
	c0-3.1-0.7-6.1-2-9c-1.3-2.9-3.3-5.4-5.8-7.7c-2.9-2.7-6.3-4.8-10.2-6.2c-3.9-1.4-7.8-2.2-11.9-2.6c-0.8,0-1.5,0-2.2-0.1
	c-0.7,0-1.4-0.1-2.2-0.1c-5,0-9.9,0.7-14.6,2.1c-4.7,1.4-9,3.3-12.7,5.8c-4.3,2.8-7.8,6.3-10.5,10.3c-2.2,3.3-3.4,6.7-3.8,10.3
	c-2.4,3.8-5.2,7.1-8.6,9.9c-4.8,4-10.7,5.9-17.8,5.9c-3.5,0-6.3-0.9-8.4-2.8c-2.1-1.8-3.4-4.5-3.9-7.8c2,0.1,4.3,0,7.1-0.3
	c2.7-0.3,5.6-0.8,8.5-1.6c5.3-1.3,10.1-3.4,14.6-6.4c4.4-2.9,6.6-6.9,6.4-12c-0.1-3.2-1.3-5.7-3.7-7.6c-2.4-1.9-5-3.2-7.7-4
	c-0.3-0.1-0.5-0.2-0.8-0.2c-0.2,0-0.5-0.1-0.8-0.2c-1.6-0.5-3.3-0.8-5.2-1c-1.9-0.2-3.8-0.3-5.8-0.3c-1.3,0-2.7,0-4,0.1
	c-1.4,0.1-2.8,0.2-4.2,0.4c-6.5,0.8-12.6,2.9-18.4,6c-5.7,3.2-9.6,7.6-11.5,13.2c-0.5,1.4-0.8,2.8-1.1,4.2c-0.2,1.4-0.4,2.7-0.4,4
	c0,0.6,0,1.1,0.1,1.6c-1,1.7-2.3,3.3-3.9,4.9c-1.2,1.1-2.4,2-3.5,2.6c-1.1,0.6-2.1,0.9-2.8,0.9c-1,0.1-1.8,0-2.3-0.4
	c-0.5-0.3-0.7-0.8-0.7-1.3c0-0.5,0.1-1.1,0.3-1.8c0.2-0.7,0.5-1.5,0.8-2.3c3.3-9.8,6.6-19.6,10-29.4c3.4-9.8,6.8-19.6,10.2-29.4
	h-0.6c-5.2,2.5-14.3,5.9-30.3,10l-0.4,0.1l-5.7,16.7c-2.7,7.8-5.3,15.6-8,23.3c-0.9,1.9-1.9,3.9-2.9,5.7c-1.1,2-2.6,3.8-4.4,5.4
	c-0.4,0.4-0.8,0.7-1.2,1c-0.4,0.3-0.8,0.6-1.2,0.8c-0.8,0.5-1.5,0.8-2.2,1.1c-0.7,0.3-1.3,0.4-1.9,0.4c-0.7,0-1.2-0.2-1.6-0.5
	c-0.4-0.3-0.6-0.9-0.6-1.8c0-0.5,0.1-1,0.2-1.6c0.1-0.6,0.3-1.2,0.5-1.9c0.8-2,1.5-4,2.1-6c0.7-2,1.4-4.1,2.1-6.2
	c0.7-2.1,1.3-4.1,2.1-6.2c0.7-2,1.4-4,2.1-6h7.5l2.5-6.8h-7.6c0.6-1.7,1.2-3.4,1.8-5.2c0.6-1.7,1.2-3.5,1.8-5.2
	c0.5-1.6,1.1-3.2,1.7-4.8c-9,1.3-18.5,2-27.4,2.2l-0.2,0.6c-0.5,1.4-0.9,2.7-1.4,4c-0.6,1.4-1.1,2.8-1.6,4.2
	c-0.5,1.4-0.9,2.8-1.4,4.2h-4.7h-1.4h-6.2c0.6-1.7,1.2-3.4,1.8-5.2c0.6-1.7,1.2-3.5,1.8-5.2c0.3-0.8,0.6-1.7,0.9-2.5
	c-12.2-0.1-22.1-0.8-26.2-1.2l-0.6,1.6c-0.5,1.4-0.9,2.7-1.4,4c-0.6,1.4-1.1,2.8-1.6,4.2c-0.5,1.4-0.9,2.8-1.4,4.2h-6.1l-2.4,6.8
	h6.1c-0.6,1.5-1.1,3-1.6,4.5c-0.5,1.5-1,3-1.5,4.5c-0.5,1.6-1,3.2-1.5,4.7c-0.2,0.5-0.4,1.1-0.6,1.6c0,0-0.1,0-0.1,0
	c-0.9,2.1-2,4.1-3,5.9c-1.1,1.9-2.5,3.7-4.2,5.4c-1.2,1.1-2.4,2-3.5,2.6c-1.1,0.6-2.1,0.9-2.8,0.9c-1,0.1-1.8,0-2.2-0.4
	c-0.4-0.4-0.6-0.8-0.6-1.4s0.1-1.2,0.3-1.9c0.2-0.7,0.4-1.4,0.7-2.1c1.1-3.5,2.3-7,3.5-10.4c1.2-3.4,2.4-6.9,3.6-10.3
	c0.6-1.7,1.2-3.4,1.8-5.2c0.6-1.7,1.2-3.5,1.8-5.2c-2.3,0-4.5,0-6.9,0c-2.3,0-4.6,0-7,0c-2.4,0-4.7,0-7,0c-2.3,0-4.6,0-6.9,0
	c-1.5,4.3-3,8.6-4.5,12.9c-1.5,4.3-2.9,8.6-4.5,12.9c-0.2,0.6-0.4,1.1-0.5,1.6c-0.1,0.5-0.3,1.1-0.5,1.6c-0.3,1.1-0.5,2.2-0.6,3.3
	c-0.1,1.1-0.2,2.1-0.2,3.2C106.9,228.9,107,229.4,107,229.9z M382.5,206.5c-0.1-2.9-0.6-5-1.6-6.3c-1-1.3-2.2-1.9-3.7-1.9
	c-0.9,0-2,0.3-3.1,0.8c-1.1,0.5-2.3,1.2-3.4,2.2c-0.5,0.4-0.9,0.8-1.3,1.3c-0.4,0.5-0.9,0.9-1.3,1.4c-2.2,2.5-3.9,5.4-5.2,8.7
	c-1.3,3.3-2.3,6.6-2.8,10c-0.1,1.1-0.2,2.2-0.3,3.3c-0.1,1.1-0.1,2.1-0.1,3.2c0,0.6,0,1.3,0.1,2.1c0,0.8,0.2,1.7,0.4,2.5
	c0.3,1.6,0.8,3,1.5,4.3c0.7,1.3,1.8,1.9,3.3,1.9c2.4,0,4.5-0.8,6.3-2.5c1.8-1.6,3.3-3.5,4.5-5.6c0.3-0.5,0.6-0.9,0.8-1.3
	c0.3-0.4,0.5-0.9,0.7-1.3c-1.5-1-2.7-2.3-3.5-3.9c-0.8-1.6-1.2-3.2-1.2-5c0-0.2,0-0.4,0-0.6c0-0.2,0-0.3,0-0.4
	c0.3-2.8,1.3-5.5,3.2-8C377.4,208.8,379.7,207.2,382.5,206.5z"/>
<text transform="matrix(1 0 0 1 174.2791 331.386)" class="st4 st5 st6">Littleone.com</text>
<g>
	<polygon class="st4" points="29.5,290.3 29.5,257.9 21.7,257.9 21.7,290.3 17.6,290.3 17.6,254.1 33.6,254.1 33.6,290.3 	"/>
	<polygon class="st4" points="50.4,290.3 50.4,273.4 50.3,273.4 42.7,290.3 38.7,290.3 38.7,264.6 42.7,264.6 42.7,281.4 
		42.8,281.4 50.4,264.6 54.5,264.6 54.5,290.3 	"/>
	<polygon class="st4" points="66.4,268.3 66.4,290.3 62.3,290.3 62.3,268.3 56.9,268.3 56.9,264.6 71.9,264.6 71.9,268.3 	"/>
	<path class="st4" d="M82.9,275.3v-2.2c0-0.7,0-1.3-0.1-1.9c-0.1-0.6-0.3-1.1-0.5-1.6c-0.2-0.5-0.6-0.8-1-1.1
		c-0.4-0.3-1-0.4-1.7-0.4c-0.6,0-1.2,0.1-1.7,0.4c-0.5,0.3-0.9,0.8-1.3,1.6c-0.2,0.5-0.3,1.1-0.4,2c-0.1,0.8-0.1,1.9-0.2,3.1H82.9z
		 M79.6,286.9c1,0,1.8-0.3,2.3-1c0.5-0.7,0.8-1.6,0.9-2.8l4.2,0.8c-0.1,2.2-0.8,3.9-2,5.1c-1.2,1.2-3.1,1.8-5.6,1.8
		c-1.1,0-2.1-0.1-2.9-0.4c-0.8-0.3-1.5-0.7-2-1.1c-0.6-0.5-1-1-1.3-1.6c-0.3-0.6-0.6-1.2-0.7-1.8c-0.1-0.4-0.2-0.9-0.3-1.6
		c-0.1-0.6-0.1-1.3-0.2-2.1c0-0.7-0.1-1.5-0.1-2.3c0-0.8,0-1.5,0-2.1c0-0.9,0-1.7,0-2.6c0-0.9,0.1-1.7,0.1-2.5
		c0.1-0.8,0.2-1.5,0.3-2.2c0.1-0.7,0.2-1.2,0.4-1.7c0.5-1.4,1.3-2.4,2.4-3.2c1.1-0.8,2.7-1.2,4.6-1.2c2.6,0,4.4,0.7,5.5,2.1
		c1.1,1.4,1.7,3.4,1.7,5.9v6.3H76c0,1.1,0,2.3,0.1,3.4c0.1,1.1,0.2,2,0.3,2.5C76.9,286.1,77.9,286.9,79.6,286.9z"/>
	<path class="st4" d="M98.1,268.3c-1.1,0-2,0.4-2.6,1.1c-0.6,0.8-0.9,1.7-0.9,2.9v10.2c0,1.2,0.3,2.2,0.8,2.9
		c0.6,0.7,1.4,1.1,2.7,1.1c0.8,0,1.4-0.1,1.8-0.4c0.5-0.3,0.8-0.8,1.1-1.5c0.3-0.7,0.4-1.7,0.5-2.9c0.1-1.2,0.2-2.7,0.2-4.4
		c0-1.6,0-3-0.1-4.1c-0.1-1.1-0.2-2.1-0.4-2.8c-0.2-0.7-0.6-1.3-1.1-1.6C99.6,268.4,99,268.3,98.1,268.3 M99.5,264.3
		c0.5,0,1,0.1,1.7,0.2c0.7,0.1,1.3,0.4,1.9,0.8c0.6,0.4,1.2,1.1,1.6,1.9c0.5,0.8,0.8,2,1,3.4c0.1,1,0.2,2.1,0.2,3.3
		c0,1.1,0,2.2,0,3.2c0,1.9,0,3.6-0.1,5.3c-0.1,1.6-0.3,3.1-0.8,4.3c-0.4,1.2-1.1,2.2-2,2.9c-0.9,0.7-2.2,1.1-3.8,1.1
		c-1,0-1.9-0.2-2.6-0.5c-0.7-0.4-1.3-0.9-1.8-1.6h-0.1v11.9h-4.1v-35.7h4.1v2l0.1,0.1c0.6-0.8,1.1-1.3,1.8-1.7
		C97.2,264.5,98.1,264.3,99.5,264.3z"/>
	<path class="st4" d="M116.8,290.7c-1.1,0-2-0.1-2.8-0.4c-0.8-0.3-1.4-0.6-2-1.1c-0.6-0.5-1-1-1.3-1.6c-0.3-0.6-0.6-1.2-0.8-1.8
		c-0.1-0.4-0.2-0.9-0.3-1.6c-0.1-0.6-0.1-1.3-0.1-2.1c0-0.7,0-1.5-0.1-2.3c0-0.8,0-1.5,0-2.1c0-0.9,0-1.8,0.1-2.7
		c0-0.9,0.1-1.8,0.1-2.6c0.1-0.8,0.1-1.6,0.2-2.3c0.1-0.7,0.2-1.2,0.4-1.6c0.5-1.3,1.3-2.4,2.4-3.1c1.1-0.8,2.6-1.1,4.6-1.1
		c2.6,0,4.4,0.7,5.5,2.1c1.1,1.4,1.6,3.2,1.6,5.6l-4.3,0.6c0-1.6-0.3-2.7-0.8-3.4c-0.5-0.7-1.3-1-2.2-1c-0.7,0-1.3,0.2-1.8,0.5
		c-0.5,0.3-0.9,0.9-1.2,1.7c-0.2,0.5-0.3,1.5-0.4,3.1c-0.1,1.5-0.1,3.3-0.2,5.4c0,1.1,0,2.3,0.1,3.3c0,1.1,0.1,1.9,0.3,2.5
		c0.2,0.8,0.6,1.4,1.1,1.8c0.5,0.4,1.2,0.7,2.1,0.7c1.1,0,1.8-0.4,2.3-1.1c0.5-0.8,0.7-1.8,0.7-3.1l4.2,0.7
		c-0.1,2.4-0.7,4.2-1.9,5.4C121.2,290.1,119.3,290.7,116.8,290.7"/>
	<path class="st4" d="M127,290.3v-25.6h4.1v11.1h1.8c0.5,0,0.9,0,1.4-0.1c0.5-0.1,0.9-0.2,1.4-0.5s0.8-0.6,1.2-1.1
		c0.4-0.5,0.7-1.2,0.9-2l2-7.4h4l-2,7.4c-0.3,1.2-0.8,2.3-1.4,3.1c-0.6,0.8-1.3,1.4-2.2,1.7c1.1,0.3,2,0.9,2.5,1.8
		c0.5,0.9,1,2,1.3,3.3l2.2,8.3H140l-1.8-7.1c-0.2-0.8-0.5-1.5-0.8-2.1c-0.3-0.5-0.7-0.9-1.1-1.2c-0.4-0.3-0.9-0.5-1.4-0.6
		c-0.5-0.1-1-0.2-1.6-0.2h-2.3v11.1H127z"/>
	<polygon class="st4" points="158.6,290.3 158.6,273.4 158.5,273.4 150.9,290.3 147,290.3 147,264.6 151,264.6 151,281.4 
		151.1,281.4 158.6,264.6 162.7,264.6 162.7,290.3 	"/>
	<path class="st4" d="M177.7,275.3v-2.2c0-0.7,0-1.3-0.1-1.9c-0.1-0.6-0.3-1.1-0.5-1.6c-0.2-0.5-0.6-0.8-1-1.1
		c-0.4-0.3-1-0.4-1.7-0.4c-0.6,0-1.2,0.1-1.7,0.4c-0.5,0.3-0.9,0.8-1.3,1.6c-0.2,0.5-0.3,1.1-0.4,2c-0.1,0.8-0.1,1.9-0.2,3.1H177.7z
		 M174.5,286.9c1,0,1.8-0.3,2.3-1c0.5-0.7,0.8-1.6,0.9-2.8l4.2,0.8c-0.1,2.2-0.8,3.9-2,5.1c-1.2,1.2-3.1,1.8-5.6,1.8
		c-1.1,0-2.1-0.1-2.9-0.4c-0.8-0.3-1.5-0.7-2-1.1c-0.6-0.5-1-1-1.3-1.6c-0.3-0.6-0.6-1.2-0.7-1.8c-0.1-0.4-0.2-0.9-0.3-1.6
		c-0.1-0.6-0.1-1.3-0.2-2.1c0-0.7-0.1-1.5-0.1-2.3c0-0.8,0-1.5,0-2.1c0-0.9,0-1.7,0-2.6c0-0.9,0.1-1.7,0.1-2.5
		c0.1-0.8,0.2-1.5,0.3-2.2c0.1-0.7,0.2-1.2,0.4-1.7c0.5-1.4,1.3-2.4,2.4-3.2c1.1-0.8,2.7-1.2,4.6-1.2c2.6,0,4.4,0.7,5.5,2.1
		c1.1,1.4,1.7,3.4,1.7,5.9v6.3h-11c0,1.1,0,2.3,0.1,3.4c0.1,1.1,0.2,2,0.3,2.5C171.7,286.1,172.8,286.9,174.5,286.9z"/>
	<path class="st4" d="M203.1,268.3c-1.1,0-2,0.4-2.6,1.1c-0.6,0.8-0.9,1.7-0.9,2.9v10.2c0,1.2,0.3,2.2,0.8,2.9
		c0.6,0.7,1.4,1.1,2.7,1.1c0.8,0,1.4-0.1,1.8-0.4c0.5-0.3,0.8-0.8,1.1-1.5c0.3-0.7,0.4-1.7,0.5-2.9c0.1-1.2,0.2-2.7,0.2-4.4
		c0-1.6,0-3-0.1-4.1c-0.1-1.1-0.2-2.1-0.4-2.8c-0.2-0.7-0.6-1.3-1.1-1.6C204.6,268.4,204,268.3,203.1,268.3 M204.5,264.3
		c0.5,0,1,0.1,1.7,0.2c0.7,0.1,1.3,0.4,1.9,0.8c0.6,0.4,1.2,1.1,1.6,1.9c0.5,0.8,0.8,2,1,3.4c0.1,1,0.2,2.1,0.2,3.3
		c0,1.1,0,2.2,0,3.2c0,1.9,0,3.6-0.1,5.3c-0.1,1.6-0.3,3.1-0.8,4.3c-0.4,1.2-1.1,2.2-2,2.9c-0.9,0.7-2.2,1.1-3.8,1.1
		c-1,0-1.9-0.2-2.6-0.5c-0.7-0.4-1.3-0.9-1.8-1.6h-0.1v11.9h-4.1v-35.7h4.1v2l0.1,0.1c0.6-0.8,1.1-1.3,1.8-1.7
		C202.1,264.5,203.1,264.3,204.5,264.3z"/>
	<path class="st4" d="M222.3,268.1c-0.7,0-1.3,0.2-1.9,0.5c-0.6,0.3-1,0.9-1.3,1.7c-0.2,0.5-0.3,1.5-0.4,3c-0.1,1.5-0.1,3.3-0.2,5.4
		c0,1.1,0,2.3,0.1,3.3c0,1.1,0.1,1.9,0.3,2.5c0.5,1.6,1.6,2.4,3.4,2.4c0.7,0,1.4-0.2,1.9-0.7c0.6-0.4,1-1,1.2-1.7
		c0.1-0.2,0.1-0.5,0.2-1c0.1-0.5,0.1-1,0.2-1.7c0.1-0.6,0.1-1.3,0.1-2.1c0-0.7,0-1.4,0-2.2c0-0.7,0-1.4,0-2.1c0-0.7,0-1.4-0.1-2.1
		c0-0.7-0.1-1.2-0.1-1.8c-0.1-0.5-0.1-0.9-0.2-1.2C225.1,268.9,224,268.1,222.3,268.1 M222.5,264.3c1.5,0,2.7,0.2,3.6,0.6
		c0.9,0.4,1.7,0.9,2.2,1.6c0.6,0.7,1,1.5,1.2,2.4c0.2,0.9,0.4,1.9,0.5,3c0.1,1,0.1,2.1,0.2,3.2c0,1.1,0.1,2.2,0.1,3.1
		c0,2-0.1,4-0.3,5.9c-0.2,1.4-0.5,2.5-1,3.4c-0.5,0.9-1.2,1.5-1.9,2c-0.7,0.5-1.6,0.8-2.4,1c-0.9,0.2-1.7,0.3-2.6,0.3
		c-1.1,0-2-0.1-2.8-0.4c-0.8-0.3-1.5-0.6-2-1.1c-0.6-0.5-1-1-1.4-1.6c-0.3-0.6-0.6-1.2-0.8-1.8c-0.1-0.4-0.2-0.9-0.3-1.6
		c-0.1-0.6-0.1-1.3-0.1-2.1c0-0.7,0-1.5-0.1-2.3c0-0.8,0-1.5,0-2.1c0-0.9,0-1.8,0.1-2.7c0-0.9,0.1-1.8,0.2-2.6
		c0.1-0.8,0.2-1.6,0.3-2.3c0.1-0.7,0.2-1.2,0.4-1.6c0.5-1.3,1.3-2.4,2.5-3.1C219,264.7,220.5,264.3,222.5,264.3z"/>
	<path class="st4" d="M246.1,268.3h-5.8l-0.5,10.3c-0.1,1.9-0.3,3.5-0.5,4.8c-0.2,1.3-0.6,2.4-1,3.3h7.8V268.3z M235.9,296.8h-3.8
		v-9.5l1.4-0.5c0.3-0.3,0.6-0.7,0.9-1.1c0.3-0.4,0.5-0.9,0.7-1.5c0.2-0.6,0.4-1.4,0.5-2.3c0.1-0.9,0.2-2.1,0.3-3.5l0.5-13.8h13.8v22
		h1.9v10.1h-3.7v-6.4h-12.5V296.8z"/>
	<polygon class="st4" points="267.1,290.3 267.1,273.4 267,273.4 259.4,290.3 255.5,290.3 255.5,264.6 259.5,264.6 259.5,281.4 
		259.6,281.4 267.1,264.6 271.2,264.6 271.2,290.3 	"/>
	<polygon class="st4" points="283.2,268.3 283.2,290.3 279.1,290.3 279.1,268.3 273.7,268.3 273.7,264.6 288.7,264.6 288.7,268.3 	
		"/>
	<path class="st4" d="M299.6,275.3v-2.2c0-0.7,0-1.3-0.1-1.9c-0.1-0.6-0.3-1.1-0.5-1.6c-0.2-0.5-0.6-0.8-1-1.1
		c-0.4-0.3-1-0.4-1.7-0.4c-0.6,0-1.2,0.1-1.7,0.4c-0.5,0.3-0.9,0.8-1.3,1.6c-0.2,0.5-0.3,1.1-0.4,2c-0.1,0.8-0.1,1.9-0.2,3.1H299.6z
		 M296.4,286.9c1,0,1.8-0.3,2.3-1c0.5-0.7,0.8-1.6,0.9-2.8l4.2,0.8c-0.1,2.2-0.8,3.9-2,5.1c-1.2,1.2-3.1,1.8-5.6,1.8
		c-1.1,0-2.1-0.1-2.9-0.4c-0.8-0.3-1.5-0.7-2-1.1c-0.6-0.5-1-1-1.3-1.6c-0.3-0.6-0.6-1.2-0.7-1.8c-0.1-0.4-0.2-0.9-0.3-1.6
		c-0.1-0.6-0.1-1.3-0.2-2.1c0-0.7-0.1-1.5-0.1-2.3c0-0.8,0-1.5,0-2.1c0-0.9,0-1.7,0-2.6c0-0.9,0.1-1.7,0.1-2.5
		c0.1-0.8,0.2-1.5,0.3-2.2c0.1-0.7,0.2-1.2,0.4-1.7c0.5-1.4,1.3-2.4,2.4-3.2c1.1-0.8,2.7-1.2,4.6-1.2c2.6,0,4.4,0.7,5.5,2.1
		c1.1,1.4,1.7,3.4,1.7,5.9v6.3h-11c0,1.1,0,2.3,0.1,3.4c0.1,1.1,0.2,2,0.3,2.5C293.6,286.1,294.7,286.9,296.4,286.9z"/>
	<path class="st4" d="M305.9,288.1c0.7-0.5,1.3-1,1.8-1.4c0.5-0.5,0.8-1,1.1-1.5c0.3-0.6,0.5-1.3,0.6-2.1c0.1-0.8,0.2-1.9,0.2-3.1
		v-15.3h13.6v25.7H319v-22h-5.8v11.9c0,1.6-0.1,3-0.3,4.2c-0.2,1.2-0.5,2.2-0.9,3c-0.4,0.9-1,1.6-1.7,2.2c-0.7,0.6-1.6,1.2-2.6,1.6
		L305.9,288.1z"/>
	<polygon class="st4" points="339,290.3 339,273.4 338.9,273.4 331.3,290.3 327.4,290.3 327.4,264.6 331.4,264.6 331.4,281.4 
		331.5,281.4 339,264.6 343.1,264.6 343.1,290.3 	"/>
	<path class="st4" d="M368.6,290.3v-11.1h-1.6c-0.6,0-1.1,0.1-1.6,0.2c-0.5,0.1-1,0.3-1.4,0.6c-0.4,0.3-0.8,0.7-1.1,1.2
		c-0.3,0.5-0.6,1.2-0.8,2.1l-1.8,7.1h-4.1l2.2-8.3c0.3-1.3,0.8-2.4,1.3-3.3c0.5-0.9,1.4-1.5,2.5-1.8c-0.9-0.3-1.6-0.8-2.2-1.7
		c-0.6-0.8-1-1.9-1.4-3.1l-2-7.4h4l2,7.4c0.2,0.8,0.5,1.5,0.9,2c0.4,0.5,0.8,0.9,1.2,1.1c0.4,0.3,0.9,0.4,1.4,0.5
		c0.5,0.1,0.9,0.1,1.4,0.1h1v-11.1h4.1v11.1h1c0.5,0,0.9,0,1.4-0.1c0.5-0.1,0.9-0.2,1.4-0.5c0.4-0.3,0.8-0.6,1.2-1.1
		c0.4-0.5,0.6-1.2,0.9-2l2-7.4h4l-2,7.4c-0.3,1.2-0.8,2.3-1.4,3.1c-0.6,0.8-1.3,1.4-2.2,1.7c1.1,0.3,2,0.9,2.5,1.8
		c0.5,0.9,1,2,1.3,3.3l2.2,8.3h-4.1l-1.8-7.1c-0.2-0.8-0.5-1.5-0.8-2.1c-0.3-0.5-0.7-0.9-1.1-1.2c-0.4-0.3-0.9-0.5-1.4-0.6
		c-0.5-0.1-1-0.2-1.6-0.2h-1.6v11.1H368.6z"/>
	<polygon class="st4" points="399.7,290.3 399.7,273.4 399.6,273.4 392,290.3 388.1,290.3 388.1,264.6 392.1,264.6 392.1,281.4 
		392.2,281.4 399.7,264.6 403.8,264.6 403.8,290.3 	"/>
	<path class="st4" d="M419.5,271.6c0-1.1-0.3-1.9-1-2.5c-0.6-0.6-1.7-0.8-3.3-0.8h-2.4v6.8h2.4c1.6,0,2.7-0.3,3.3-0.9
		C419.2,273.6,419.5,272.8,419.5,271.6 M420,282.2c0-1.2-0.3-2.1-0.9-2.7c-0.6-0.6-1.8-1-3.5-1h-2.8v7.9h2.9c0.9,0,1.7-0.1,2.2-0.3
		c0.6-0.2,1-0.5,1.3-0.9c0.3-0.4,0.5-0.8,0.6-1.3C420,283.4,420,282.8,420,282.2z M408.6,290.3v-25.7h6.9c2.8,0,4.9,0.6,6.2,1.8
		c1.3,1.2,2,3,2,5.2c0,1.2-0.2,2.2-0.6,3c-0.4,0.8-1,1.5-1.9,2.1h0.1c1,0.5,1.8,1.2,2.2,2.3c0.4,1,0.6,2.2,0.6,3.6
		c0,2.7-0.7,4.7-2.1,5.9c-1.4,1.2-3.6,1.9-6.6,1.9H408.6z"/>
	<path class="st4" d="M435.9,294.6c-0.4,1.7-1.1,3.1-2,4.2c-0.9,1.1-2.3,1.6-4.1,1.6h-1.6v-3.5h1c1,0,1.7-0.3,2.1-1
		c0.4-0.6,0.8-1.8,1.2-3.6l0.4-1.8l-6.8-25.9h4.4l2.2,9.8l2.1,8.9h0.2l1.9-9l2.1-9.7h4.2L435.9,294.6z"/>
	<polygon class="st4" points="453,268.3 453,290.3 448.9,290.3 448.9,268.3 443.5,268.3 443.5,264.6 458.4,264.6 458.4,268.3 	"/>
	<path class="st4" d="M481.6,277.1c1.2,0.4,1.9,1.1,2.2,2.2c0.3,1.1,0.5,2.3,0.5,3.7c0,1.5-0.2,2.7-0.6,3.6c-0.4,1-1,1.8-1.7,2.3
		c-0.7,0.6-1.6,1-2.5,1.3c-1,0.3-1.9,0.4-3,0.4c-2.1,0-3.8-0.5-5.1-1.6c-1.3-1-2.1-2.7-2.3-5l4-0.6c0.1,1.2,0.4,2.1,1,2.7
		c0.6,0.6,1.4,0.8,2.5,0.8c0.9,0,1.7-0.3,2.5-0.9c0.7-0.6,1.1-1.6,1.1-3.1c0-1.2-0.2-2.1-0.6-2.9c-0.4-0.8-1.2-1.1-2.2-1.1h-2.3
		v-3.6h2.4c1,0,1.7-0.3,2.1-0.9c0.4-0.6,0.6-1.5,0.6-2.7c0-1-0.3-1.8-0.8-2.5c-0.5-0.7-1.4-1-2.6-1c-2.1,0-3.3,1.2-3.4,3.5l-3.9-0.8
		c0.2-2.1,0.9-3.7,2.2-4.8c1.3-1.1,3-1.7,5.1-1.7c2.4,0,4.3,0.6,5.6,1.7c1.3,1.1,2,2.9,2,5.3c0,0.6,0,1.2-0.1,1.8s-0.2,1.1-0.4,1.6
		c-0.2,0.5-0.5,0.9-0.8,1.3c-0.3,0.4-0.8,0.7-1.3,0.9V277.1z"/>
	<path class="st4" d="M501.4,268.3h-5.8l-0.5,10.3c-0.1,1.9-0.3,3.5-0.5,4.8c-0.2,1.3-0.6,2.4-1,3.3h7.8V268.3z M491.2,296.8h-3.8
		v-9.5l1.4-0.5c0.3-0.3,0.6-0.7,0.9-1.1c0.3-0.4,0.5-0.9,0.7-1.5c0.2-0.6,0.4-1.4,0.5-2.3c0.1-0.9,0.2-2.1,0.3-3.5l0.5-13.8h13.8v22
		h1.9v10.1h-3.7v-6.4h-12.5V296.8z"/>
	<path class="st4" d="M521,275.3v-2.2c0-0.7,0-1.3-0.1-1.9c-0.1-0.6-0.3-1.1-0.5-1.6c-0.2-0.5-0.6-0.8-1-1.1c-0.4-0.3-1-0.4-1.7-0.4
		c-0.6,0-1.2,0.1-1.7,0.4c-0.5,0.3-0.9,0.8-1.3,1.6c-0.2,0.5-0.3,1.1-0.4,2c-0.1,0.8-0.1,1.9-0.2,3.1H521z M517.8,286.9
		c1,0,1.8-0.3,2.3-1c0.5-0.7,0.8-1.6,0.9-2.8l4.2,0.8c-0.1,2.2-0.8,3.9-2,5.1c-1.2,1.2-3.1,1.8-5.6,1.8c-1.1,0-2.1-0.1-2.9-0.4
		c-0.8-0.3-1.5-0.7-2-1.1c-0.6-0.5-1-1-1.3-1.6c-0.3-0.6-0.6-1.2-0.7-1.8c-0.1-0.4-0.2-0.9-0.3-1.6c-0.1-0.6-0.1-1.3-0.2-2.1
		c0-0.7-0.1-1.5-0.1-2.3c0-0.8,0-1.5,0-2.1c0-0.9,0-1.7,0-2.6c0-0.9,0.1-1.7,0.1-2.5c0.1-0.8,0.2-1.5,0.3-2.2
		c0.1-0.7,0.2-1.2,0.4-1.7c0.5-1.4,1.3-2.4,2.4-3.2c1.1-0.8,2.7-1.2,4.6-1.2c2.6,0,4.4,0.7,5.5,2.1c1.1,1.4,1.7,3.4,1.7,5.9v6.3h-11
		c0,1.1,0,2.3,0.1,3.4c0.1,1.1,0.2,2,0.3,2.5C515,286.1,516.1,286.9,517.8,286.9z"/>
	<path class="st4" d="M536,290.7c-1.1,0-2-0.1-2.8-0.4c-0.8-0.3-1.4-0.6-2-1.1c-0.6-0.5-1-1-1.3-1.6c-0.3-0.6-0.6-1.2-0.8-1.8
		c-0.1-0.4-0.2-0.9-0.3-1.6c-0.1-0.6-0.1-1.3-0.1-2.1c0-0.7,0-1.5-0.1-2.3c0-0.8,0-1.5,0-2.1c0-0.9,0-1.8,0.1-2.7
		c0-0.9,0.1-1.8,0.1-2.6c0.1-0.8,0.1-1.6,0.2-2.3c0.1-0.7,0.2-1.2,0.4-1.6c0.5-1.3,1.3-2.4,2.4-3.1c1.1-0.8,2.6-1.1,4.6-1.1
		c2.6,0,4.4,0.7,5.5,2.1c1.1,1.4,1.6,3.2,1.6,5.6l-4.3,0.6c0-1.6-0.3-2.7-0.8-3.4c-0.5-0.7-1.3-1-2.2-1c-0.7,0-1.3,0.2-1.8,0.5
		c-0.5,0.3-0.9,0.9-1.2,1.7c-0.2,0.5-0.3,1.5-0.4,3.1c-0.1,1.5-0.1,3.3-0.2,5.4c0,1.1,0,2.3,0.1,3.3c0,1.1,0.1,1.9,0.3,2.5
		c0.2,0.8,0.6,1.4,1.1,1.8c0.5,0.4,1.2,0.7,2.1,0.7c1.1,0,1.8-0.4,2.3-1.1c0.5-0.8,0.7-1.8,0.7-3.1l4.2,0.7
		c-0.1,2.4-0.7,4.2-1.9,5.4C540.5,290.1,538.6,290.7,536,290.7"/>
	<path class="st4" d="M546.7,290.3v-25.7h4.3v9.8h2.2c1.8,0,3.3,0.2,4.4,0.6c1.1,0.4,2,1,2.6,1.7c0.6,0.7,1,1.5,1.3,2.5
		c0.2,0.9,0.3,1.9,0.3,3c0,1.2-0.1,2.4-0.4,3.4c-0.2,1-0.7,1.9-1.3,2.6c-0.6,0.7-1.5,1.2-2.5,1.6c-1.1,0.4-2.4,0.6-4.1,0.6H546.7z
		 M550.9,286.4h2.2c1,0,1.8-0.1,2.3-0.4c0.6-0.3,1-0.6,1.4-1c0.3-0.4,0.5-0.8,0.6-1.3c0.1-0.5,0.2-1,0.2-1.5c0-0.5-0.1-1-0.2-1.5
		c-0.1-0.5-0.3-0.9-0.7-1.3c-0.3-0.4-0.8-0.7-1.4-0.9c-0.6-0.2-1.4-0.3-2.4-0.3h-2.1V286.4z"/>
	<path class="st4" d="M566.7,290.4v-4.2h4.2v4.2H566.7z M570.5,281.1H567l-0.4-27h4.2L570.5,281.1z"/>
</g>
</svg>
